<?xml version="1.0" encoding="utf-8" ?><svg xmlns="http://www.w3.org/2000/svg" xmlns:xlink="http://www.w3.org/1999/xlink" width="2688" height="1536" viewBox="0 0 2688 1536"><path fill="#181926" d="M0 0L2208.1 0L2346.11 0L2356.77 0L2438.24 0L2450.2 0L2659.98 0L2675.67 0L2688 0L2688 416.037L2688 460.294L2688 530.519L2688 605.143L2688 735.827L2688 742.482L2688 754.513L2688 760.922L2688 799.833L2688 805.125L2688 817.736L2688 823.639L2688 862.788L2688 868.86L2688 881.096L2688 887.259L2688 924.994L2688 931.084L2688 943.526L2688 949.02L2688 1008.85L2688 1081.75L2688 1147.89L2688 1154.88L2688 1232.95L2688 1314.63L2688 1371.08L2688 1382.64L2688 1393.39L2688 1404.72L2688 1414.9L2688 1427L2688 1464.98L2688 1471.42L2688 1536L2591.38 1536L2580.83 1536L2567.19 1536L2561.9 1536L2485.69 1536L2470.87 1536L2458.59 1536L2444.4 1536L2429.97 1536L2415.26 1536L2402.67 1536L2385.92 1536L2374.53 1536L2358.65 1536L2345.88 1536L2332.08 1536L2289.04 1536L2271.97 1536L2220.84 1536L0 1536L0 0Z"/><path fill="#03329B" d="M2208.1 0L2346.11 0L2356.77 0L2438.24 0L2450.2 0L2659.98 0L2675.67 0L2688 0L2688 416.037L2688 460.294L2688 530.519C2629.44 568.069 2571.13 607.48 2512.92 645.671L2089.38 924.363L1950.6 1015.67C1941.7 1021.56 1896.2 1052.6 1890.19 1054.84C1887.92 1053.78 1886.56 1054.05 1884.07 1053.96C1883.48 1022.58 1883.98 989.607 1883.98 958.099L1883.98 774.183L1883.94 213.392C1896.6 206.141 1912.35 195.133 1924.73 186.95L1994.03 141.093L2208.1 0Z"/><path fill="#0065FF" d="M2659.98 0L2675.67 0C2674.49 42.6926 2675.19 87.8163 2675.4 130.604C2654.3 145.255 2630.67 159.981 2609 174.085L2455.87 273.644L2456.02 133.042C2473.79 119.56 2505.49 100.769 2525.13 87.9544L2659.98 0Z"/><path fill="#0065FF" d="M2438.24 0L2450.2 0C2415.87 20.8079 2375.36 48.8827 2341.72 71.4393L2196.77 167.266L2154.24 195.219C2149.22 198.572 2135.27 209.895 2130.28 209.483L2129.81 206.599C2131.05 203.116 2133.19 202.063 2136.65 199.717C2149.51 191.001 2162.63 182.491 2175.59 173.933L2251.92 123.603L2438.24 0Z"/><path fill="#0065FF" d="M2346.11 0L2356.77 0C2307.01 32.0882 2257.36 66.3541 2207.61 98.3866C2193.06 107.758 2142.78 143.597 2130.07 147.476L2129.17 145.685C2136.33 136.824 2186.22 105.706 2200.27 96.3996L2346.11 0Z"/><path fill="#0065FF" d="M2688 416.037L2688 460.294C2683.75 463.089 2679.12 466.037 2674.79 468.703C2674.89 454.143 2674.9 439.583 2674.82 425.024C2679.26 421.803 2684 419.008 2688 416.037Z"/><path fill="#0065FF" d="M2674.09 228.965L2674.57 229.405C2676.21 233.434 2675.16 333.016 2675.15 343.972C2603.36 391.659 2529.58 438.202 2458.49 486.335L2457.4 485.371C2456.37 481.262 2456.73 459.412 2456.72 453.975C2456.68 425.746 2456.8 397.517 2457.1 369.289C2476.59 354.51 2510.83 334.08 2532.56 320.092C2578.83 290.313 2627.22 257.135 2674.09 228.965Z"/><path fill="#0065FF" d="M2079.81 252.756C2080.05 252.963 2080.31 253.147 2080.53 253.376C2083.46 256.483 2082.11 317.178 2081.44 325.225L1985.67 387.496C1967.75 399.288 1949.77 411.827 1931.62 423.101L1930.18 422.49C1928.8 407.067 1930.03 368.794 1929.99 351.417C1979.22 317.952 2030.97 286.858 2079.81 252.756Z"/><path fill="#0065FF" d="M2079.95 570.712L2080.88 571.128C2082.9 574.872 2081.77 633.265 2081.7 642.529C2070.57 651.177 2047.74 665.254 2035.55 673.246L1932.04 739.967C1931.56 739.888 1930.66 739.338 1930.17 739.081L1929.99 669.714C1979.09 635.565 2031.35 604.793 2079.95 570.712Z"/><path fill="#0065FF" d="M2079.5 674.716L2080.92 675.299C2082.76 679.247 2081.7 737.154 2081.65 746.003C2035.64 778.252 1979.53 812.01 1931.62 843.559C1930.98 843.547 1930.78 843.15 1930.05 842.564C1928.87 825.424 1929.96 791.064 1929.89 772.89C1940.26 764.989 1953.15 757.547 1964 749.969C2000.69 724.359 2043.37 700.374 2079.5 674.716Z"/><path fill="#0065FF" d="M2079.38 362.664L2080.31 362.879C2083.24 366.598 2081.67 425.345 2081.54 434.536C2034.99 466.907 1980.5 499.836 1932.38 531.243C1931.46 531.558 1931.72 531.346 1930.37 530.854C1928.96 514.822 1930.05 478.731 1930.04 461.198C1977.71 427.596 2032.34 396.332 2079.38 362.664Z"/><path fill="#0065FF" d="M2080.05 468.797L2080.66 469.109C2082.89 472.92 2081.89 530.208 2081.86 539.305C2063.83 552.337 2038.42 568.294 2019.37 580.699C1990.38 599.918 1961.21 618.842 1931.84 637.468L1931.43 637.362C1931.03 636.927 1930.63 636.492 1930.24 636.057C1930.21 615.584 1930.16 586.541 1930.13 566.98C1942.9 556.949 1969.03 540.93 1983.13 531.758C2015.32 510.597 2047.63 489.609 2080.05 468.797Z"/><path fill="#0065FF" d="M2079.74 782.66C2083.35 785.638 2081.84 845.137 2081.82 854.308C2032.04 886.04 1981.09 920.387 1931.6 952.881C1930.59 952.852 1931.18 952.987 1930.02 951.979C1929.3 929.79 1930 905.6 1929.86 883.093C1936.01 877.264 1966.94 857.627 1975.88 851.707C2010.72 829.027 2045.34 806.01 2079.74 782.66Z"/><path fill="#0065FF" d="M2259.49 682.792C2259.95 683.235 2260.42 683.678 2260.89 684.121C2261.63 699.174 2261.13 726.541 2261.69 740.479L2132.34 826.037L2130.8 825.679C2129.01 819.802 2130.08 776.228 2130.09 767.148L2259.49 682.792Z"/><path fill="#0065FF" d="M2673.23 174.828L2673.99 175.179C2675.54 178.181 2674.8 192.108 2674.75 196.417C2649.91 213.565 2621.99 230.879 2596.52 247.339L2457.69 336.957L2456.53 336.542C2455.34 332.625 2455.73 321.618 2455.72 316.976L2598.03 224.071C2620.84 209.259 2652.28 190.648 2673.23 174.828Z"/><path fill="#0065FF" d="M2078.74 153.735C2081.61 156.903 2080.33 176.268 2080.26 181.942C2047.47 202.892 2014.92 225.577 1982.22 246.76C1965.88 257.346 1949.06 270.036 1932.36 279.6C1930.05 276.764 1931.1 256.702 1931.17 251.859C1944.33 241.809 1958.62 233.622 1972.18 224.304C2006.84 200.493 2044.67 177.973 2078.74 153.735Z"/><path fill="#0065FF" d="M2510.32 530.037L2511.54 530.623C2512.64 536.999 2512.13 566.442 2512.14 574.551C2486.08 592.791 2450.69 616.131 2423.8 632.765C2423.44 632.665 2422.65 631.815 2422.32 631.502C2421.29 623.082 2422.01 598.604 2422.05 589.027C2428.73 583.134 2449.92 570.169 2458.72 564.388C2475.73 553.213 2493.25 540.852 2510.32 530.037Z"/><path fill="#0065FF" d="M2303.48 584.029L2304.33 584.271C2306.02 587.166 2305.59 601.6 2305.63 605.936C2284.57 618.871 2262.85 633.807 2242.09 647.487L2132.51 719.181C2131.7 719.47 2132.29 719.338 2130.74 718.761C2129.69 713.912 2130.03 703.194 2130.02 697.791L2238.42 626.869C2259.42 613.061 2282.24 596.974 2303.48 584.029Z"/><path fill="#0065FF" d="M2382.3 616.943L2383.49 617.618C2384.59 626.002 2383.99 650.197 2383.98 659.729C2356.39 678.671 2323.84 700.312 2295.49 717.957L2294.29 717.453C2293.27 712.081 2293.86 682.342 2293.9 675.114C2299.96 669.832 2314.11 660.936 2321.44 656.114L2382.3 616.943Z"/><path fill="#0065FF" d="M2638.91 448.043C2641.09 450.943 2640.3 484.693 2640.3 490.819C2633.64 495.913 2619.62 504.36 2612.12 509.32C2591.33 523.215 2570.42 536.935 2549.4 550.478C2547 546.421 2548.04 515.278 2548.08 508.337C2578.7 488.765 2608.98 468.664 2638.91 448.043Z"/><path fill="#0065FF" d="M2220.85 233.959L2222.21 234.465C2223.49 237.563 2222.9 245.883 2222.82 249.712C2192.71 269.832 2161.52 289.195 2131.71 309.454L2130.88 309.323C2129.52 306.511 2130.04 298.221 2130.08 294.603C2156.01 275.088 2192.92 252.87 2220.85 233.959Z"/><path fill="#0065FF" d="M2317.44 115.967L2318.62 116.245L2319.81 118.327C2318.17 125.484 2306.8 130.333 2300.46 134.511L2261.7 160.342C2218.78 189.07 2175.67 217.512 2132.38 245.669L2130.93 245.933L2129.81 244.569C2129.89 236.814 2147.07 228.789 2153.98 224.316L2197.44 195.893L2317.44 115.967Z"/><path fill="#0065FF" d="M2355.08 395.982L2356.46 396.237C2358.01 398.689 2357.68 397.343 2357.15 400.484C2352.61 406.942 2210.42 499.184 2193.82 509.452L2192.12 508.164L2191.97 505.814C2194.74 500.613 2244.79 469.016 2253.85 463.073C2287.77 440.972 2321.51 418.608 2355.08 395.982Z"/><path fill="#0065FF" d="M2355.83 457.04C2357.38 459.709 2356.99 458.602 2356.69 462.097C2352.7 468.232 2211.38 560.895 2193.15 571.843C2191.88 570.708 2192.26 570.566 2191.57 568.443C2193.51 562.857 2202.45 559.186 2207.59 555.752C2220.21 547.149 2232.9 538.658 2245.67 530.279L2355.83 457.04Z"/><path fill="#0065FF" d="M2355.29 205.858L2356.84 206.522L2357.5 208.642C2356.4 211.848 2355.85 212.551 2352.74 214.779C2332.98 228.907 2311.91 242.163 2291.62 255.526C2259.18 277.175 2226.64 298.659 2193.99 319.979L2192.81 319.782C2190.73 316.629 2192.34 314.311 2195.29 312.286C2212.73 300.307 2230.62 288.95 2248.27 277.27L2355.29 205.858Z"/><path fill="#0065FF" d="M2355.72 330.678C2358.03 331.675 2357.76 332.661 2357.84 334.677C2354.61 340.769 2213.3 432.182 2193.66 444.962L2192.72 444.772C2191.11 442.307 2191.45 443.666 2192.03 440.487C2196.04 435.159 2233.5 412.018 2242.07 406.328C2280.17 381.437 2318.05 356.219 2355.72 330.678Z"/><path fill="#0065FF" d="M2355.69 267.934C2357.49 268.675 2356.64 268.206 2357.91 270.463C2357.16 273.405 2356.52 274.78 2353.74 276.568C2328.65 292.717 2304.3 310.093 2279.08 326.065C2250.56 344.121 2222.95 364.596 2194.14 382.076L2192.87 381.829L2191.69 380.006C2192.31 377.527 2192.84 376.116 2195.24 374.496C2212.74 362.729 2230.72 351.014 2248.3 339.43C2284.23 315.797 2320.02 291.965 2355.69 267.934Z"/><path fill="#0065FF" d="M2160.98 570.168C2162.64 572.668 2161.98 599.968 2162.02 604.361C2152.22 610.588 2141.06 617.727 2131.51 624.349C2128.96 621.504 2130.03 597.18 2129.97 591.216C2135.85 587.203 2143.13 582.678 2148.67 578.664C2152.7 575.719 2156.8 572.886 2160.98 570.168Z"/><path fill="#0065FF" d="M2159.99 381.864C2162.75 383.439 2161.58 410.7 2161.56 415.158C2151.23 422.047 2142.89 428.593 2132.11 435.338C2128.57 433.911 2130.03 407.49 2130 402.161C2139.43 395.981 2148.16 389.766 2157.41 383.555L2159.99 381.864Z"/><path fill="#0065FF" d="M2160.48 444.846C2162.67 446.922 2161.84 472.61 2161.88 477.222C2152.96 483.519 2143.29 490.524 2134.03 496.194L2131.2 497.906C2129.21 495.987 2129.97 469.526 2129.92 464.831C2130.29 464.577 2130.65 464.323 2131.02 464.07C2132.84 462.744 2134.72 461.498 2136.65 460.335C2144.98 455.406 2152.44 450.125 2160.48 444.846Z"/><path fill="#0065FF" d="M2161.04 320.301C2162.23 322.433 2161.7 348.449 2161.64 352.616C2152.03 359.329 2141.27 366.905 2131.32 373.127C2129.06 370.463 2130 345.083 2130.01 339.931C2139.16 334.186 2148.78 327.405 2157.98 322.054L2161.04 320.301Z"/><path fill="#0065FF" d="M2159.44 507.938C2161.23 508.918 2161.6 509.055 2161.57 511.409C2161.44 521.068 2161.49 530.775 2161.69 540.437C2152.02 546.589 2142.17 552.673 2132.41 558.678C2131.9 558.859 2130.67 559.334 2130.58 558.961C2129.48 554.193 2130.08 531.319 2130.12 527.386L2159.44 507.938Z"/><path fill="#0065FF" d="M2420.05 285.909C2434.17 284.639 2426.4 302.62 2416.89 308.447L2415.71 309.183C2399.46 308.007 2411.36 291.233 2420.05 285.909Z"/><path fill="#0065FF" d="M2421.34 476.573C2434.91 479.552 2424.59 494.53 2417.63 499.52L2415.12 501.285C2399.74 496.17 2412.73 481.712 2421.34 476.573Z"/><path fill="#0065FF" d="M2419.53 349.661C2436.41 350.403 2424.68 366.498 2416.57 372.4C2410.2 373.587 2407.8 371.135 2408.6 364.989C2409.58 357.494 2414 353.896 2419.53 349.661Z"/><path fill="#0065FF" d="M2422.14 156.797C2434.62 162.069 2423.95 177.644 2414.25 180.966L2413.12 180.643C2400.61 177.05 2413.6 160.805 2422.14 156.797Z"/><path fill="#0065FF" d="M2420.76 412.518C2426.16 413.32 2428.42 415.377 2427.45 421.18C2426.21 428.679 2421.02 432.264 2415.53 436.309C2404.17 435.506 2408.02 426.234 2412.59 419.162C2414.22 416.642 2418.26 414.321 2420.76 412.518Z"/><path fill="#0065FF" d="M2420.31 221.771C2426.65 222.327 2428.55 224.888 2427.17 231.517C2425.74 238.411 2420.8 241.748 2415.36 245.493C2399.68 243.061 2412.83 226.987 2420.31 221.771Z"/><path fill="#03329B" d="M2688 1081.75L2688 1147.89L2688 1154.88L2688 1232.95L2688 1314.63L2688 1371.08L2688 1382.64L2688 1393.39L2688 1404.72L2688 1414.9L2688 1427L2688 1464.98L2688 1471.42L2688 1536L2591.38 1536L2580.83 1536L2567.19 1536L2561.9 1536L2485.69 1536L2470.87 1536L2458.59 1536L2444.4 1536L2429.97 1536L2415.26 1536L2402.67 1536L2385.92 1536L2374.53 1536L2358.65 1536L2345.88 1536L2332.08 1536L2289.04 1536L2271.97 1536L2220.84 1536L2220.76 1390.5L2565.61 1162.48C2606.05 1135.66 2648.04 1109.08 2688 1081.75Z"/><path fill="#03329B" d="M2688 1154.88L2688 1232.95L2688 1314.63L2688 1371.08L2688 1382.64L2688 1393.39L2688 1404.72L2688 1414.9L2688 1427L2688 1464.98L2688 1471.42L2688 1536L2591.38 1536L2580.83 1536L2567.19 1536L2567.05 1234.85C2572.98 1230.41 2580.28 1225.78 2586.55 1221.78C2620.55 1200.08 2653.83 1176.17 2688 1154.88Z"/><path fill="#0065FF" d="M2657.63 1279.08C2670.17 1258.15 2669.39 1252.28 2688 1232.95L2688 1314.63L2572.74 1390.94C2576.79 1375.85 2584.25 1358.39 2589.69 1343.33L2627.4 1239.34C2637.55 1252.45 2647.27 1266.24 2657.63 1279.08Z"/><path fill="#03329B" d="M2591.38 1536C2623.76 1514.74 2655.97 1493.21 2688 1471.42L2688 1536L2591.38 1536Z"/><path fill="#0065FF" d="M2688 1427C2659.04 1444.87 2631.28 1464.83 2602.29 1482.52C2595.41 1486.72 2585.62 1494.18 2578.87 1496.94L2577.72 1495.8C2577.28 1490.06 2578.1 1486.22 2583.2 1482.98C2617.81 1460.98 2654.09 1437.81 2688 1414.9L2688 1427Z"/><path fill="#0065FF" d="M2577.27 1442.48C2611.55 1422.9 2654.23 1393.19 2688 1371.08L2688 1382.64C2671.92 1391.61 2585.7 1451.94 2578.31 1452.68C2576.62 1450.06 2577.2 1445.81 2577.27 1442.48Z"/><path fill="#0065FF" d="M2688 1404.72C2674.29 1412.97 2586.07 1473.01 2580.69 1473.04C2578.97 1473.05 2578.97 1472.39 2577.9 1471.21C2577.69 1469.77 2577.4 1468.25 2577.7 1466.81C2578.85 1461.4 2674.73 1402.72 2688 1393.39L2688 1404.72Z"/><path fill="#0065FF" d="M2688 1464.98L2688 1471.42C2655.97 1493.21 2623.76 1514.74 2591.38 1536L2580.83 1536C2607.67 1516.52 2636.96 1499.15 2664.33 1480.31C2671.81 1475.15 2680.22 1469.57 2688 1464.98Z"/><path fill="#0065FF" d="M2688 1147.89L2688 1154.88C2653.83 1176.17 2620.55 1200.08 2586.55 1221.78C2580.28 1225.78 2572.98 1230.41 2567.05 1234.85L2567.19 1536L2561.9 1536L2562.44 1231.4C2603.55 1202.8 2646.46 1176.1 2688 1147.89Z"/><path fill="#0065FF" d="M2332.08 1536C2343.87 1526.41 2506.29 1418.35 2514.12 1416.33C2515.49 1418.54 2515.12 1420.47 2515.09 1423.14C2512.01 1428.44 2364.44 1523.65 2345.88 1536L2332.08 1536Z"/><path fill="#0065FF" d="M2358.65 1536C2371.89 1526.83 2511.63 1434.44 2514.21 1434.31C2515.75 1436.91 2515.08 1438.52 2514.93 1441.98C2512.57 1446.07 2389.56 1525.17 2374.53 1536L2358.65 1536Z"/><path fill="#0065FF" d="M2385.92 1536C2414.63 1516.08 2445.41 1497.4 2474.65 1478.09C2481.89 1473.31 2507.55 1455.1 2514.28 1452.18C2515.62 1454.38 2515.06 1457.25 2514.9 1459.95C2511.62 1466.19 2415.98 1526.27 2402.67 1536L2385.92 1536Z"/><path fill="#0065FF" d="M2425.67 1528.86C2444.3 1515.39 2464.77 1503.17 2483.93 1490.34C2492.75 1484.43 2504.05 1477.81 2512.01 1471.05L2514.13 1470.84C2515.51 1472.99 2516.35 1478.22 2514.27 1479.66C2486.75 1498.78 2458.38 1518.14 2429.97 1536L2415.26 1536L2417.36 1534.49C2419.86 1532.32 2422.85 1530.62 2425.67 1528.86Z"/><path fill="#0065FF" d="M2444.4 1536C2447.86 1532.68 2511.98 1489.29 2514.32 1488.76C2515.74 1489.79 2515.45 1498.21 2514.67 1498.74C2496.14 1511.25 2476.94 1523.14 2458.59 1536L2444.4 1536Z"/><path fill="#0065FF" d="M2470.87 1536C2475.11 1532.95 2513.08 1507.48 2514.58 1507.57C2516.39 1508.72 2515.77 1514.8 2514.95 1515.41C2505.38 1522.53 2495.28 1528.86 2485.69 1536L2470.87 1536Z"/><path fill="#0065FF" d="M2271.97 1536C2273.62 1534.91 2275.59 1533.69 2277.3 1532.62L2284.82 1527.96C2291.71 1523.74 2301.31 1516.23 2308.51 1512.05C2308.7 1511.94 2309.49 1512.38 2309.54 1512.65C2311.11 1522.45 2309.17 1521.91 2302.38 1526.44C2297.12 1529.95 2292.91 1532.82 2289.04 1536L2271.97 1536Z"/><path fill="#0065FF" d="M2384.84 1329.94L2385.8 1330.71C2386.89 1334.89 2386.54 1344.68 2386.54 1349.43C2348.34 1376.75 2301.09 1407.53 2261.6 1433.47L2260.5 1433.31C2259.21 1429.08 2259.66 1418.35 2259.67 1413.41L2384.84 1329.94Z"/><path fill="#0065FF" d="M2513.32 1322.88L2515.04 1323.94C2517.17 1334.96 2502.74 1340.57 2494.14 1346.27C2479.05 1356.27 2463.88 1366.14 2448.62 1375.87L2334.58 1451.07L2333.12 1450.44C2332.53 1447.92 2331.86 1441.65 2334.53 1439.98C2394.83 1402.3 2453.13 1360.64 2513.32 1322.88Z"/><path fill="#0065FF" d="M2513.75 1340.71L2515.27 1342.49C2515.6 1348.46 2516.05 1349.83 2511.14 1353.28C2492.27 1366.56 2472.58 1378.62 2453.31 1391.29L2334.11 1469.93L2333.04 1468.89C2332.58 1461.28 2331.88 1460.91 2338.65 1456.31C2354.11 1445.83 2369.98 1435.97 2385.54 1425.63C2428.44 1397.56 2471.18 1369.25 2513.75 1340.71Z"/><path fill="#0065FF" d="M2513.24 1359.93L2514.96 1360.54C2515.86 1363.86 2515.88 1368.3 2512.74 1370.52C2494.57 1383.39 2475.52 1394.95 2456.93 1407.21C2416.36 1434.49 2375.54 1461.39 2334.48 1487.92L2333.45 1487.68C2332 1484.74 2332.24 1485.19 2332.7 1481.48C2332.86 1480.16 2334.92 1477.63 2336.04 1476.85C2356.34 1462.82 2377.78 1448.91 2398.4 1435.45C2436.82 1410.49 2475.1 1385.31 2513.24 1359.93Z"/><path fill="#0065FF" d="M2513.54 1396.77L2514.63 1397.67C2515.51 1400.66 2515.5 1400.5 2515.14 1403.58C2508.35 1413.8 2359.64 1507.32 2334.59 1525.16L2333.07 1523.49C2332.88 1517.24 2331.94 1515.97 2337.3 1512.53C2350.48 1504.07 2363.65 1495.63 2376.7 1486.95L2513.54 1396.77Z"/><path fill="#0065FF" d="M2514.79 1376.72C2515.56 1379.22 2515.36 1384.21 2515.38 1387.03C2458 1426.56 2392.86 1468.69 2334.39 1506.47L2333.36 1505.4C2332.76 1502.7 2332.57 1502.16 2332.68 1499.29C2339.39 1489.35 2494.58 1392.49 2514.79 1376.72Z"/><path fill="#0065FF" d="M2308.6 1492.81C2310.15 1495.87 2309.66 1499.94 2309.63 1503.64C2298.3 1510.69 2273.38 1526.43 2263.56 1534.48C2261.84 1531.4 2262.52 1527.88 2262.57 1523.93C2278.23 1513.73 2293.25 1503.41 2308.6 1492.81Z"/><path fill="#0065FF" d="M2308.83 1456.2C2309.58 1457.41 2309.67 1458.05 2309.7 1459.47C2309.74 1461.23 2309.97 1463.32 2309.65 1465.04C2309.11 1467.91 2270.31 1492.03 2264.57 1496.19C2261.65 1494.16 2262.63 1487.61 2262.83 1487.45C2273.13 1479.21 2298.49 1462.55 2308.83 1456.2Z"/><path fill="#0065FF" d="M2308.62 1474.83C2310.61 1476.75 2311.15 1483.87 2308.02 1485.79C2293.05 1495.1 2278.39 1504.9 2264.06 1515.18C2261.27 1512.23 2261.97 1505.89 2265.71 1503.4C2279.9 1493.91 2294.31 1484.07 2308.62 1474.83Z"/><path fill="#0065FF" d="M2482.63 1280.87C2486.29 1285.81 2482.41 1287.79 2478.64 1290.22C2456.72 1304.37 2435.23 1319.08 2413.46 1333.46C2408.66 1327.62 2415.72 1324.98 2420.14 1322.15C2441.18 1308.69 2461.79 1294.59 2482.63 1280.87Z"/><path fill="#0065FF" d="M2514.19 1260.08C2521.51 1265.32 2495.34 1279.26 2490.93 1281.91C2487.41 1279.18 2489.18 1276.6 2492.19 1274.59L2514.19 1260.08Z"/><path fill="#03329B" d="M2520.95 715.52L2688 605.143L2688 735.827L2688 742.482L2688 754.513L2688 760.922L2688 799.833L2688 805.125L2688 817.736L2688 823.639L2688 862.788L2688 868.86L2688 881.096L2688 887.259L2688 924.994L2688 931.084L2688 943.526L2688 949.02L2688 1008.85C2679.57 1013.53 2658.1 1028.68 2648.82 1034.79L2564.2 1090.52C2552.6 1098.23 2533.95 1111.28 2522.12 1117.42L2520.95 715.52Z"/><path fill="#0065FF" d="M2688 735.827L2688 742.482C2683.8 744.932 2679.84 747.444 2675.86 750.27C2659.66 759.95 2627.58 784.546 2611.7 788.884C2624.63 775.012 2655.5 757.169 2672.54 745.999C2677.16 742.856 2683.8 739.097 2688 735.827Z"/><path fill="#0065FF" d="M2688 931.084C2671.65 943.047 2648.47 957.185 2630.91 968.008C2628.57 969.45 2619.87 976.369 2617.6 975.777C2617.25 975.686 2616.96 975.462 2616.78 975.147C2616.4 974.494 2616.42 973.679 2616.59 972.964C2617.29 969.966 2680.7 929.22 2688 924.994L2688 931.084Z"/><path fill="#0065FF" d="M2688 799.833L2688 805.125C2676.35 814.634 2632.97 841.21 2617.67 850.585C2617.3 850.809 2616.34 850.425 2615.85 850.142C2615.48 846.119 2620.72 843.744 2623.64 841.818C2641.65 829.933 2659.58 817.907 2677.83 806.385C2680.77 804.526 2684.62 802.463 2687.28 800.396L2688 799.833Z"/><path fill="#0065FF" d="M2688 817.736L2688 823.639C2679.19 829.521 2670.11 835.09 2661.36 841.056C2655.91 844.778 2650.35 848.558 2644.78 852.093C2641.35 854.267 2619.5 869.425 2617.56 869.023C2617.25 868.958 2617.04 868.804 2616.88 868.522C2616.51 867.897 2616.59 866.699 2616.7 866.005C2617.37 861.807 2679.06 824.436 2687.29 818.281C2687.53 818.102 2687.76 817.918 2688 817.736Z"/><path fill="#0065FF" d="M2688 760.922C2680.94 764.291 2667.79 774.535 2663.25 776.342C2657.24 778.738 2616.54 811.884 2616.7 803.493C2616.74 801.58 2622.56 797.749 2625.32 795.974C2646.17 782.526 2666.68 767.158 2688 754.513L2688 760.922Z"/><path fill="#0065FF" d="M2688 868.86C2679.84 873.152 2618.85 915.123 2616.22 913.985C2614.84 911.784 2617 908.964 2618.87 907.782C2642.03 892.961 2665.07 877.963 2688 862.788L2688 868.86Z"/><path fill="#0065FF" d="M2688 949.02C2665.72 964.892 2641.31 978.869 2618.73 994.381C2617.42 995.277 2616.53 993.423 2616.27 992.544C2617.87 987.116 2678.45 949.59 2688 943.526L2688 949.02Z"/><path fill="#0065FF" d="M2688 887.259C2683.86 890.16 2679.83 892.466 2672.81 896.804C2654.37 908.148 2636.46 920.628 2618.03 931.851C2617.03 932.46 2615.5 928.488 2619.07 926.174C2638.42 913.632 2657.76 899.801 2677.51 887.95C2681.1 885.799 2684.59 883.513 2688 881.096L2688 887.259Z"/><path fill="#0065FF" d="M2673.54 661.894C2673.96 661.956 2674.82 662.582 2675.25 662.851C2675.75 671.715 2675.36 682.386 2675.24 691.438C2638.13 715.832 2598.75 742.282 2561.37 765.737L2559.56 765.31C2558.58 760.314 2559.02 743.757 2559.06 737.916C2580.4 724.043 2601.63 709.979 2622.72 695.724C2638.86 684.746 2656.93 671.874 2673.54 661.894Z"/><path fill="#0065FF" d="M2585.97 976.107C2587.49 978.452 2587.22 1012.68 2587.22 1018.37C2575.64 1026.57 2563.19 1034.01 2551.45 1042.11C2549.15 1039.98 2550.18 1005.05 2550.15 999.378C2561.23 992.225 2575.7 983.494 2585.97 976.107Z"/><path fill="#0065FF" d="M2585.69 784.982C2587.68 787.005 2586.92 821.276 2587.01 826.904L2555.7 847.385C2554.2 848.373 2553.04 849.15 2551.6 850.227C2549.43 848.095 2550.22 813.605 2550.12 807.872C2550.65 807.513 2551.18 807.154 2551.71 806.796L2555.1 804.578L2582.51 786.979L2585.69 784.982Z"/><path fill="#0065FF" d="M2585.97 849.131C2587.31 851.405 2586.93 884.974 2586.93 890.281C2576.06 897.892 2562.41 906.723 2551.01 913.78C2549.44 911.592 2550.01 877.272 2549.99 871.763C2562.45 864.527 2573.99 857.149 2585.97 849.131Z"/><path fill="#0065FF" d="M2585.33 912.861C2587.98 913.948 2587.1 948.872 2587.2 954.186C2575.81 961.738 2563.99 969 2552.55 976.547C2550.07 976.601 2550.7 972.658 2550.72 970.847C2550.87 958.889 2550.66 946.983 2550.48 935.03C2557.06 930.661 2563.21 927.383 2569.76 923.287C2575.09 920.019 2580.28 916.541 2585.33 912.861Z"/><path fill="#0065FF" d="M1884.07 1053.96C1886.56 1054.05 1887.92 1053.78 1890.19 1054.84C1889.96 1061.65 1890.05 1068.37 1890.05 1075.19L1869.98 1075.22L1869.97 1054.03C1874.67 1054.08 1879.37 1054.06 1884.07 1053.96Z"/><path fill="#03329B" d="M2452.8 760.952L2453.29 761.401C2455.04 766.167 2454 845.406 2454.01 858.083L2454.18 1161.88C2436.93 1171.71 2413.94 1188 2396.83 1199.37L2304.37 1260.12L1961.03 1485.53C1959.37 1483.05 1959.97 1121.76 1959.96 1087.45L2452.8 760.952Z"/><path fill="#0065FF" d="M2002.23 1173.6C2080.91 1121.17 2159.88 1069.18 2239.15 1017.65L2354.03 942.284C2363.19 936.266 2421.36 896.488 2426.74 897.001C2426.6 897.691 2426.45 898.381 2426.3 899.072C2317.46 972.027 2207.09 1042.8 2097.85 1115.17C2067.98 1134.95 2034.03 1154.63 2005.88 1176.14C2004.73 1181.37 2005.16 1225.72 2005.23 1233.99C2005.57 1279.43 2004.65 1325.97 2005.76 1371.35L2009.19 1362.98C2013.52 1351.63 2018.09 1340.37 2022.89 1329.21C2025.53 1323.08 2034.25 1305.76 2033.04 1300.49C2030.09 1292.12 2038.79 1287.43 2045 1291.19C2045.61 1293.09 2045.97 1294.46 2046.43 1296.37C2051.38 1298.3 2057.95 1295.6 2062.55 1293.75L2094.7 1247.25C2097.92 1242.58 2103.89 1234.17 2106.4 1230.2C2115.13 1216.4 2103.99 1220.77 2117.84 1211.69C2125.84 1206.45 2135.37 1174.76 2142.07 1165.91C2144.51 1161.82 2142.07 1151.13 2148.6 1146.19C2152.52 1145.5 2151.02 1145.26 2154.61 1146.62C2157.81 1150.58 2157.3 1150.81 2156.59 1156.03C2159.15 1161.38 2172.59 1174.77 2177.44 1180.18L2178.17 1179.07C2182.58 1172.28 2185.61 1164.75 2188.97 1157.42C2200.03 1133.34 2210.13 1108.77 2222 1085.08C2222.78 1083.51 2219.84 1077.48 2221.47 1072.96C2225.65 1068.58 2229.1 1066.02 2233.76 1070.64C2234.57 1074.22 2234.55 1074.91 2234.56 1078.63C2238.25 1083.14 2270.65 1097.85 2277.34 1100.3C2279.48 1099.87 2285.18 1098.16 2286.23 1099.89C2290.83 1107.4 2303.61 1113.25 2309.91 1103.4C2321.27 1085.64 2332.59 1065.39 2343.71 1047.19C2345.75 1043.79 2338.69 1035.13 2350.96 1032.96C2358.76 1035.53 2368.69 1045.85 2372.19 1031.13C2372.73 1028.83 2380.38 1027.65 2381.79 1024.62C2391.09 1004.71 2401.84 984.352 2410.19 964.093C2409.67 958.869 2408.22 957.232 2409.95 953.035C2412.61 950.17 2412.97 949.867 2416.64 948.54C2420.51 948.958 2419.12 948.268 2421.81 950.899C2424.56 959.43 2419.61 962.32 2413.33 965.955C2422.29 982.843 2434.27 1088.63 2436.52 1113.45C2418.5 1125.89 2397.69 1138.6 2380.56 1151.25C2383.24 1114.38 2387.39 1077.63 2393.02 1041.09C2395.21 1026.38 2399.64 1006.88 2401.17 992.835C2395.2 1006.74 2383.26 1022.92 2384.91 1038.15L2383.82 1038.94C2374.27 1045.86 2367.72 1039.91 2358.87 1042.3C2344.2 1046.27 2322.91 1090.7 2313.41 1105.28C2314.05 1111.82 2314.42 1118.33 2307.26 1121.28C2303.91 1120.86 2304.07 1120.96 2301.45 1118.86C2301.01 1116.46 2300.78 1115.28 2300.01 1112.89C2290.95 1107.59 2286.06 1115.91 2277.72 1113.26C2275.56 1111.23 2275.59 1109.1 2275.03 1106.1C2271.43 1102.35 2230.2 1080.63 2227.65 1085.04C2210.79 1114.2 2199.31 1146.85 2184.08 1176.96C2184.45 1181.97 2186.15 1185.21 2184.48 1188.87C2180.6 1192.67 2176.76 1195.15 2172.28 1190.86C2172.14 1190.22 2170.89 1180.28 2171.48 1181.15C2167.5 1175.26 2156.68 1160.95 2149.22 1161.27C2143.88 1167.35 2127.87 1203.31 2123.52 1212.79C2126.11 1230.13 2118.69 1220.8 2111.43 1230.65C2095.82 1251.83 2081.4 1273.89 2066.22 1295.4C2066.4 1300.78 2067.2 1308.18 2061.83 1311.35C2054.22 1310.12 2055.58 1303.67 2051.14 1301.42C2047.84 1299.74 2040.56 1304.06 2036.64 1305.45C2034.83 1314.22 2020.52 1342.7 2016.26 1354.99C2014.13 1360.27 2005.43 1383.54 2002.62 1386.01C2003.84 1371 2002.37 1332.39 2002.31 1315.64L2002.23 1173.6Z"/><path fill="#0065FF" d="M2219.44 1131.54C2220.51 1131.64 2221.8 1131.75 2222.79 1132.22C2234.85 1137.94 2247.84 1218.84 2251.83 1235.29C2239.29 1242.54 2223.94 1253.28 2211.6 1261.41C2205.51 1264.9 2195.86 1271.72 2189.73 1275.78C2195.57 1246.33 2201.53 1149.95 2219.44 1131.54Z"/><path fill="#0065FF" d="M2138.67 1013.91C2140.79 1016.79 2139.96 1039.55 2139.94 1044.85C2094.58 1075.26 2049 1105.33 2003.2 1135.07C2000.83 1131.73 2001.71 1109.6 2001.72 1103.82C2015.07 1096.43 2035.39 1082.11 2048.69 1073.35L2138.67 1013.91Z"/><path fill="#0065FF" d="M2346.29 1077.52C2347.72 1077.47 2351.29 1077.85 2352.12 1078.64C2363.64 1089.57 2373.08 1139.02 2376.24 1153.89C2364.37 1161.72 2352.45 1169.48 2340.49 1177.19C2333.77 1181.38 2327.08 1185.7 2320.07 1189.39C2325.24 1160.72 2329.58 1099.93 2346.29 1077.52Z"/><path fill="#0065FF" d="M2155.17 1213.55C2159.52 1214.32 2161.43 1215.05 2163.96 1218.97C2175.18 1236.39 2179.01 1258.95 2186.44 1278.04C2174.31 1285.26 2160.48 1294.89 2148.54 1302.77C2141.55 1307.28 2134.51 1311.72 2127.42 1316.09C2131.47 1289.82 2139.07 1231.01 2155.17 1213.55Z"/><path fill="#0065FF" d="M2285.65 1129.68C2299.3 1131.65 2310.54 1178.35 2316.1 1191.16L2316.53 1192.13C2304.11 1200.76 2290.05 1209.16 2277 1218.16C2270.19 1222.55 2263.46 1227.07 2256.81 1231.7C2261.21 1206.91 2269.11 1144.78 2285.65 1129.68Z"/><path fill="#0065FF" d="M2095.43 1271.66C2108.25 1273.25 2118.17 1308.21 2122.96 1319.34L2083.57 1344.84C2081.43 1346.89 2069.6 1353.98 2066.99 1355.42C2072.24 1332.64 2078.79 1285 2095.43 1271.66Z"/><path fill="#0065FF" d="M2023.5 1356.52C2039.1 1340.07 2050.84 1339.2 2063.02 1358.46C2056.15 1362.78 2006.73 1395.78 2004.09 1396.41C2002.73 1395.98 2002.93 1394.4 2002.85 1393.23C2005.31 1389.57 2006.23 1387.05 2007.77 1382.96C2011.98 1371.8 2015.88 1365.38 2023.5 1356.52Z"/><path fill="#0065FF" d="M2404.13 855.989C2408.21 856.316 2405.09 864.215 2405.95 863.547C2389.82 876.082 2370.96 887.968 2353.53 899.301C2349.95 899.948 2352.32 889.52 2352.24 889.573C2368.44 878.988 2385.07 867.438 2401.65 857.488C2402.48 856.997 2403.31 856.498 2404.13 855.989Z"/><path fill="#0065FF" d="M2323.81 906.747C2326.19 909.206 2325.83 916.74 2324.86 917.459C2314.14 925.401 2289.84 940.645 2279.37 947.091C2277.17 944.877 2278.05 939.871 2278.06 936.769C2293.22 926.669 2308.61 916.821 2323.81 906.747Z"/><path fill="#0065FF" d="M2248.71 954.731C2250.59 956.425 2251.16 961.718 2250.66 962.085C2235.9 972.972 2218.33 984.942 2202.39 994.459C2198.8 993.026 2199.8 987.659 2200.09 987.427C2210.81 978.586 2237.87 961.777 2248.71 954.731Z"/><path fill="#0065FF" d="M2412.37 1134.38C2417.76 1136.29 2415.41 1147.42 2413.55 1151.23C2412.96 1150.89 2412.38 1150.55 2411.79 1150.22C2410.97 1149.74 2410.38 1148.94 2410.18 1148.01C2409.57 1145.29 2409.54 1138.08 2411.47 1135.6L2412.37 1134.38Z"/><path fill="#0065FF" d="M2284.66 1217.19L2285.62 1217.34C2291.73 1218.26 2289.38 1227.8 2288.77 1233.11C2281.31 1230.83 2283.22 1225.03 2284.66 1217.19Z"/><path fill="#0065FF" d="M2350.16 1176.46C2353.5 1179.12 2353.23 1187.58 2351.69 1190.64L2350.58 1192.81C2344.81 1188.97 2345.69 1180.97 2350.16 1176.46Z"/><path fill="#0065FF" d="M2157.57 1301.47C2163.54 1303.12 2161.56 1312.71 2159.54 1316.85C2153.74 1314.4 2155.13 1305.8 2157.57 1301.47Z"/><path fill="#0065FF" d="M2221.84 1260.43C2225.56 1263.38 2225.1 1273.48 2222.35 1275.88L2221.36 1276.79C2217.59 1272.58 2218.13 1264.75 2221.84 1260.43Z"/><path fill="#0065FF" d="M2095.99 1341.28C2102.19 1343.53 2099.83 1350.48 2099.02 1356.82C2098.43 1356.61 2097.85 1356.41 2097.25 1356.22C2092.9 1354.83 2095.09 1344.44 2095.99 1341.28Z"/><path fill="#0065FF" d="M2033.74 1382.43C2033.72 1382.42 2035.47 1382.88 2035.45 1382.88C2035.81 1382.84 2036.64 1383.77 2036.68 1384.05C2037.37 1389.75 2037.7 1392.65 2035.57 1397.46C2030.32 1394.31 2031.1 1386.97 2033.74 1382.43Z"/><path fill="#0065FF" d="M521.906 640.599C527.544 643.111 543.259 655.934 549.497 660.475C600.91 697.907 651.325 737.104 702.997 774.134C678.64 778.535 654.22 782.576 629.744 786.256C646.896 816.803 666.488 848.222 684.293 878.671L678.107 882.892C667.419 889.481 656.826 896.222 646.331 903.114C630.639 873.146 609.162 839.573 591.981 809.681C581.996 825.769 558.063 856.368 546.256 872.623C541.047 813.678 533.201 754.766 527.834 695.844C526.234 678.271 522.733 657.767 521.906 640.599Z"/><path fill="#181926" d="M860.54 777.498C855.345 811.495 835.295 840.943 799.761 847.621C780.301 851.26 760.199 846.806 744.097 835.286C710.12 811.278 703.705 762.581 728.031 729.311C739.616 713.25 757.156 702.503 776.727 699.477C795.554 696.676 814.563 702.322 830 713.4C841.88 721.926 855.859 741.136 857.993 755.837C860.56 759.227 866.881 757.768 871.243 757.774C871.195 764.199 871.194 770.623 871.24 777.048C867.714 777.121 863.895 776.784 860.54 777.498Z"/><path fill="#03329B" d="M860.54 777.498C855.345 811.495 835.295 840.943 799.761 847.621C780.301 851.26 760.199 846.806 744.097 835.286C710.12 811.278 703.705 762.581 728.031 729.311C739.616 713.25 757.156 702.503 776.727 699.477C795.554 696.676 814.563 702.322 830 713.4C841.88 721.926 855.859 741.136 857.993 755.837C856.715 755.562 856.84 755.567 855.609 756.18C842.51 717.097 805.611 690.732 764.434 705.319C745.843 711.87 730.711 725.692 722.508 743.615C714.393 761.094 713.609 781.093 720.329 799.154C727.242 817.756 741.38 832.774 759.531 840.798C775.711 847.877 795.615 847.964 811.902 841.282C840.485 829.556 852.28 806.112 858.307 777.647L860.54 777.498Z"/><path fill="#0065FF" d="M855.609 756.18C856.84 755.567 856.715 755.562 857.993 755.837C860.56 759.227 866.881 757.768 871.243 757.774C871.195 764.199 871.194 770.623 871.24 777.048C867.714 777.121 863.895 776.784 860.54 777.498L858.307 777.647C852.64 776.571 849.955 778.577 850.582 771.508C851.49 761.279 846.742 761.037 854.813 756.625L855.609 756.18Z"/><path fill="#03329B" d="M778.654 741.122C790.46 738.394 802.821 742.215 811.028 751.13C819.234 760.045 822.021 772.681 818.325 784.221C814.63 795.761 805.023 804.427 793.164 806.918C775.085 810.715 757.319 799.243 753.341 781.203C749.362 763.162 760.654 745.282 778.654 741.122Z"/><path fill="#181926" d="M783.357 743.227C800.271 741.61 815.306 753.981 816.977 770.89C818.647 787.8 806.323 802.874 789.419 804.597C772.44 806.328 757.284 793.937 755.606 776.953C753.929 759.968 766.367 744.852 783.357 743.227Z"/><path fill="#0065FF" d="M512.072 605.498C517.242 604.181 522.72 605.781 526.368 609.674C530.017 613.568 531.258 619.138 529.608 624.212C527.959 629.286 523.679 633.061 518.439 634.064C510.666 635.552 503.118 630.594 501.397 622.87C499.675 615.146 504.403 607.452 512.072 605.498Z"/><path fill="#0065FF" d="M1195.96 587.933L1217.15 587.853C1217.11 595.523 1217.24 603.421 1217.08 611.059L1196.01 611.087L1195.96 587.933Z"/><path fill="#0065FF" d="M1352.19 1087.07L1373.54 1087L1373.49 1108.95L1352.27 1108.99L1352.19 1087.07Z"/><path fill="#0065FF" d="M964.585 731.773C971.699 731.801 978.812 731.773 985.925 731.69L985.907 753.624L964.674 753.699L964.585 731.773Z"/><path fill="#0065FF" d="M1299.89 712.316L1321.12 712.301L1321.12 734.046L1299.68 734.11C1299.73 727.071 1299.52 719.244 1299.89 712.316Z"/><path fill="#0065FF" d="M1247.6 587.743L1268.68 587.745C1268.62 595.125 1268.62 602.506 1268.69 609.886C1262.1 610.191 1254.4 610.007 1247.69 610.061L1247.6 587.743Z"/><path fill="#0065FF" d="M1084.6 730.708L1105.84 730.607C1105.78 737.875 1105.8 745.144 1105.89 752.411L1084.65 752.637L1084.6 730.708Z"/><path fill="#0065FF" d="M1299.98 883.958C1307.05 884.078 1314.13 884.095 1321.2 884.011C1321.24 891.311 1321.24 898.611 1321.18 905.911L1299.97 905.956L1299.98 883.958Z"/><path fill="#0065FF" d="M1360.04 1034.51C1364.48 1034.44 1368.93 1034.43 1373.37 1034.46C1373.37 1037.25 1373.86 1052.59 1372.8 1055.67C1372.48 1056.59 1366.16 1056.13 1364.54 1056.11L1351.99 1056.1C1351.99 1053.49 1351.6 1037.47 1352.56 1035.2C1352.96 1034.23 1358.49 1034.53 1360.04 1034.51Z"/><path fill="#0065FF" d="M1195.93 700.003C1202.96 700.041 1209.99 700.032 1217.02 699.977C1217.01 707.308 1217.1 714.641 1217.02 721.966L1195.95 721.984L1195.93 700.003Z"/><path fill="#0065FF" d="M1462.59 964.111L1483.51 964.034L1483.5 984.75C1480.69 986.66 1467.05 985.923 1462.58 985.939L1462.59 964.111Z"/><path fill="#0065FF" d="M1084.62 787.045C1091.65 786.91 1098.8 786.925 1105.85 786.868L1105.95 808.843C1098.82 808.959 1091.69 809.027 1084.55 809.048L1084.62 787.045Z"/><path fill="#0065FF" d="M1352.05 980.037C1359.18 980.098 1366.3 980.089 1373.43 980.01C1373.46 986.914 1373.6 994.888 1373.3 1001.71L1352.06 1001.8L1352.05 980.037Z"/><path fill="#0065FF" d="M1196.13 642.243L1217.09 642.237L1217.14 664.12L1196.02 664.098C1196.01 656.876 1195.91 649.447 1196.13 642.243Z"/><path fill="#0065FF" d="M1299.86 978.032C1306.84 978.071 1313.83 978.057 1320.81 977.99C1320.72 985.162 1321 992.773 1320.76 999.811C1313.78 999.787 1306.79 999.799 1299.8 999.847C1299.78 992.575 1299.8 985.303 1299.86 978.032Z"/><path fill="#0065FF" d="M1352.01 920.627C1359.07 920.643 1366.14 920.608 1373.2 920.524L1373.24 942.111L1352.01 942.138L1352.01 920.627Z"/><path fill="#0065FF" d="M1299.59 769.86C1306.7 769.915 1313.81 769.912 1320.92 769.849C1320.82 776.967 1320.8 784.086 1320.88 791.205C1314.06 791.465 1306.49 791.329 1299.59 791.359C1299.54 784.193 1299.54 777.026 1299.59 769.86Z"/><path fill="#0065FF" d="M964.961 778.35L985.86 778.351L985.918 800.049L964.882 800.097C964.772 793.088 964.494 785.325 964.961 778.35Z"/><path fill="#0065FF" d="M1352.08 640.992L1373.15 640.964L1373.16 662.385L1352.15 662.49L1352.08 640.992Z"/><path fill="#0065FF" d="M1352.18 684.771C1359.22 684.598 1366.43 684.684 1373.49 684.679L1373.36 706.086L1352.18 706.11L1352.18 684.771Z"/><path fill="#0065FF" d="M1085.01 674.475L1105.78 674.469C1105.78 679.96 1106.07 691.097 1105.57 696.172L1084.44 696.241C1084.45 691.519 1084.06 678.388 1085.01 674.475Z"/><path fill="#0065FF" d="M1462.93 1078.07L1483.82 1078.1L1483.82 1099.91L1462.92 1099.83C1462.8 1092.58 1462.8 1085.32 1462.93 1078.07Z"/><path fill="#0065FF" d="M1142.09 758.056C1149.1 758.104 1156.12 758.094 1163.13 758.025C1163.16 765.33 1163.14 772.636 1163.09 779.941L1142.17 779.893L1142.09 758.056Z"/><path fill="#0065FF" d="M1299.84 598.806L1320.99 598.607C1321 605.951 1320.94 613.141 1321.05 620.504C1313.98 620.43 1306.92 620.451 1299.85 620.564L1299.84 598.806Z"/><path fill="#0065FF" d="M1247.8 971.626C1254.85 971.682 1261.89 971.659 1268.93 971.556C1268.81 978.724 1268.8 985.894 1268.89 993.063C1262.06 993.434 1254.76 993.27 1247.85 993.366L1247.8 971.626Z"/><path fill="#0065FF" d="M1352.06 806.021C1359.08 806.046 1366.1 806.033 1373.12 805.979C1373.11 813.143 1373.23 820.773 1373.07 827.898L1352.19 827.847L1352.06 806.021Z"/><path fill="#0065FF" d="M1423.91 1022.5C1424.58 1022.5 1427.27 1022.3 1427.43 1023.11C1428.44 1028.22 1427.94 1038.86 1427.94 1043.97L1410.75 1043.95C1404.3 1043.99 1406.87 1028.16 1406.87 1022.52L1423.91 1022.5Z"/><path fill="#0065FF" d="M1299.87 827.145L1320.89 827.01C1320.97 833.104 1321.17 842.711 1320.85 848.6C1313.83 848.716 1306.81 848.759 1299.79 848.729C1299.79 841.773 1299.62 834.033 1299.87 827.145Z"/><path fill="#0065FF" d="M905.05 754.034L926.012 754.068L925.966 776.002C919.022 775.868 912.077 775.825 905.132 775.872C905.035 768.593 905.007 761.314 905.05 754.034Z"/><path fill="#0065FF" d="M1247.8 538.326C1254.77 538.385 1261.74 538.385 1268.7 538.327C1268.76 545.421 1268.88 552.889 1268.7 559.945L1247.76 560.026C1247.74 553.008 1247.5 545.287 1247.8 538.326Z"/><path fill="#0065FF" d="M1084.76 842.553C1091.75 842.446 1098.86 842.551 1105.87 842.515L1105.88 863.96C1098.98 864.154 1091.78 864.107 1084.85 864.103C1084.78 856.92 1084.75 849.737 1084.76 842.553Z"/><path fill="#0065FF" d="M1462.56 1207.8L1483.56 1207.64L1483.5 1227.77C1480.59 1230.32 1467.65 1229.2 1462.65 1229.21C1462.7 1222.07 1462.67 1214.93 1462.56 1207.8Z"/><path fill="#0065FF" d="M1352.41 579.276C1359.34 579.368 1366.28 579.349 1373.22 579.217C1373.17 586.492 1373.27 593.851 1373.11 601.104L1352.35 601.183C1352.27 593.88 1352.29 586.577 1352.41 579.276Z"/><path fill="#0065FF" d="M1300.04 933.48L1321.12 933.348C1321.06 940.561 1321.19 947.869 1321.06 955.056L1299.84 955.135C1299.86 948.858 1299.57 939.446 1300.04 933.48Z"/><path fill="#0065FF" d="M1299.6 546.178L1320.38 546.18C1320.37 553.375 1320.41 560.57 1320.5 567.765L1299.62 567.797L1299.6 546.178Z"/><path fill="#0065FF" d="M1352.13 865.811L1373.3 865.685L1373.17 887.192L1352.2 887.268C1352.12 880.116 1352.1 872.963 1352.13 865.811Z"/><path fill="#0065FF" d="M1196.38 864.408L1217.1 864.475L1217.13 886.057L1196.26 886.093C1196.24 879.005 1196.1 871.446 1196.38 864.408Z"/><path fill="#0065FF" d="M1299.91 655.704C1306.89 655.725 1313.87 655.698 1320.84 655.623C1320.73 662.772 1320.74 669.922 1320.89 677.071C1314.31 677.401 1306.64 677.201 1299.95 677.196L1299.91 655.704Z"/><path fill="#0065FF" d="M1196.22 926.25L1216.9 926.265L1216.96 948.025C1210.04 947.993 1203.12 947.997 1196.2 948.038C1196.14 940.776 1196.14 933.513 1196.22 926.25Z"/><path fill="#0065FF" d="M1352.25 501.726C1359.02 501.468 1366.47 501.615 1373.32 501.61C1373.25 508.7 1373.24 515.791 1373.28 522.882L1352.32 522.94L1352.25 501.726Z"/><path fill="#0065FF" d="M1026.1 756.52C1032.97 756.56 1039.85 756.552 1046.72 756.495L1046.82 778.151C1040.21 778.421 1032.81 778.286 1026.12 778.354L1026.1 756.52Z"/><path fill="#0065FF" d="M1463.13 407.359C1470 407.36 1476.87 407.313 1483.74 407.219C1483.76 414.516 1483.72 421.814 1483.64 429.111L1462.99 429.145C1463.01 422.559 1462.63 413.576 1463.13 407.359Z"/><path fill="#0065FF" d="M1462.67 1142.74C1469.64 1142.68 1476.61 1142.66 1483.59 1142.7C1483.62 1149.78 1483.61 1156.85 1483.56 1163.93C1477.74 1164.43 1468.77 1164.15 1462.7 1164.17L1462.67 1142.74Z"/><path fill="#0065FF" d="M1142.25 819.192L1162.97 819.145C1162.86 826.149 1163.13 833.917 1162.86 840.759L1142.24 840.851L1142.25 819.192Z"/><path fill="#0065FF" d="M1196.16 810.393L1216.97 810.395C1216.95 817.661 1216.98 824.926 1217.06 832.191L1196.06 832.187C1196.01 825.284 1195.78 817.167 1196.16 810.393Z"/><path fill="#0065FF" d="M1352.07 747.154C1359.08 747.179 1366.09 747.137 1373.1 747.029L1373.14 768.461C1366.12 768.36 1359.1 768.369 1352.08 768.489C1352.05 761.516 1351.9 754.101 1352.07 747.154Z"/><path fill="#0065FF" d="M1299.7 1026.12L1320.55 1026.13C1320.47 1033.22 1320.59 1040.38 1320.45 1047.43C1313.53 1047.51 1306.61 1047.54 1299.68 1047.51L1299.7 1026.12Z"/><path fill="#0065FF" d="M1462.85 321.972L1483.55 322.201C1483.62 329.255 1483.62 336.31 1483.55 343.364C1476.66 343.531 1469.77 343.592 1462.88 343.545L1462.85 321.972Z"/><path fill="#0065FF" d="M1462.53 779.735L1483.53 779.674L1483.49 799.623C1481.38 801.608 1466.39 800.815 1462.61 800.812C1462.66 793.787 1462.63 786.76 1462.53 779.735Z"/><path fill="#0065FF" d="M1462.64 1020.82L1483.65 1020.77C1483.61 1027.84 1483.61 1034.92 1483.65 1041.99C1477.02 1042.3 1469.38 1042.13 1462.67 1042.12L1462.64 1020.82Z"/><path fill="#0065FF" d="M1247.69 695.608C1254.61 695.634 1261.53 695.608 1268.45 695.53C1268.42 702.698 1268.43 709.866 1268.48 717.034C1261.6 717.003 1254.71 717.023 1247.83 717.096L1247.69 695.608Z"/><path fill="#0065FF" d="M1462.59 652.853C1469.56 652.753 1476.53 652.708 1483.5 652.717L1483.47 674.06L1462.68 674.066L1462.59 652.853Z"/><path fill="#0065FF" d="M1407.24 1090.34C1414.11 1090.41 1420.98 1090.42 1427.85 1090.4C1427.84 1097.36 1427.96 1104.8 1427.76 1111.72C1420.93 1111.66 1414.09 1111.63 1407.25 1111.66C1407.14 1104.98 1406.85 1096.9 1407.24 1090.34Z"/><path fill="#0065FF" d="M1462.85 903.235L1483.58 903.162C1483.68 909.806 1483.78 918.05 1483.54 924.646C1476.49 924.369 1469.78 924.377 1462.73 924.345C1462.74 918.325 1462.45 908.989 1462.85 903.235Z"/><path fill="#0065FF" d="M1197.21 754.484L1216.96 754.406C1216.97 759.004 1217.33 772.101 1216.65 776.141L1196.09 776.118C1196.11 771.421 1195.23 757.446 1197.21 754.484Z"/><path fill="#0065FF" d="M1407.02 1149.93C1413.9 1149.99 1420.78 1150 1427.67 1149.95C1427.62 1157.05 1427.74 1164.16 1427.56 1171.25C1420.76 1171.33 1413.96 1171.37 1407.15 1171.37C1407.02 1164.22 1406.98 1157.08 1407.02 1149.93Z"/><path fill="#0065FF" d="M1407.47 766.318C1414.35 766.534 1420.98 766.425 1427.85 766.476C1427.88 773.571 1427.87 780.666 1427.81 787.76L1406.99 787.746C1406.93 782.752 1406.38 770.475 1407.47 766.318Z"/><path fill="#0065FF" d="M1142.23 696.395L1162.95 696.41C1162.95 703.563 1163.04 710.831 1162.98 717.966L1142.16 717.965C1142.14 710.969 1141.95 703.324 1142.23 696.395Z"/><path fill="#0065FF" d="M1352.35 427.662C1359.28 427.687 1366.21 427.669 1373.15 427.606C1373.11 434.545 1373.27 442.028 1373.04 448.895L1352.42 448.821L1352.35 427.662Z"/><path fill="#0065FF" d="M1142.16 636.217L1163.04 636.158L1163.04 657.334L1142.15 657.258C1142.1 650.351 1142 643.103 1142.16 636.217Z"/><path fill="#0065FF" d="M1247.84 922.615C1254.66 922.662 1261.49 922.645 1268.31 922.563L1268.34 943.89L1247.9 944.019L1247.84 922.615Z"/><path fill="#0065FF" d="M1247.85 752.614L1268.07 752.624L1268.08 774.02L1247.95 774.023L1247.85 752.614Z"/><path fill="#0065FF" d="M1406.89 955.718C1413.87 955.623 1420.86 955.59 1427.84 955.617C1427.79 962.561 1427.78 969.506 1427.82 976.45C1420.8 976.46 1413.87 976.7 1406.87 976.689L1406.89 955.718Z"/><path fill="#0065FF" d="M1142.13 881.894L1163.02 881.838C1162.99 888.871 1163.11 896.024 1163.02 903.031C1156.09 903.066 1149.17 903.044 1142.25 902.967C1142.13 895.959 1142.18 888.913 1142.13 881.894Z"/><path fill="#0065FF" d="M1247.88 810.082C1254.69 810.121 1261.5 810.095 1268.31 810.005C1268.28 815.595 1268.63 826.274 1268.01 831.415L1247.86 831.543C1247.77 824.389 1247.78 817.235 1247.88 810.082Z"/><path fill="#0065FF" d="M1299.76 486.899C1306.63 487.031 1313.5 487.022 1320.37 486.873C1320.3 494.037 1320.32 501.203 1320.43 508.368C1313.54 508.315 1306.65 508.305 1299.76 508.338L1299.76 486.899Z"/><path fill="#0065FF" d="M1462.77 838.13C1469.68 838.007 1476.62 838.085 1483.54 838.015L1483.49 858.749C1478.86 859.743 1468 859.339 1462.77 859.351L1462.77 838.13Z"/><path fill="#0065FF" d="M1247.97 864.362C1254.72 864.479 1261.48 864.393 1268.23 864.402C1268.23 871.504 1268.37 878.724 1268.22 885.81L1247.9 885.917C1247.88 878.977 1247.63 871.222 1247.97 864.362Z"/><path fill="#0065FF" d="M1406.97 620.073C1413.86 620.12 1420.74 620.112 1427.62 620.048C1427.69 627.153 1427.69 634.258 1427.63 641.363L1407 641.41C1406.91 634.298 1406.9 627.185 1406.97 620.073Z"/><path fill="#0065FF" d="M1462.79 716.002C1469.71 715.901 1476.74 715.936 1483.67 715.93L1483.64 736.871C1477.44 737.271 1469.15 737.122 1462.78 737.126L1462.79 716.002Z"/><path fill="#0065FF" d="M1407.04 891.236C1413.88 891.271 1420.73 891.262 1427.57 891.209C1427.6 898.044 1427.73 905.734 1427.53 912.483L1406.9 912.61C1406.92 905.858 1406.63 897.783 1407.04 891.236Z"/><path fill="#0065FF" d="M1719.8 363.295C1726.59 363.248 1733.38 363.144 1740.18 362.983C1740.12 368.028 1740.49 380.467 1739.49 384.572C1732.81 384.37 1726.47 384.435 1719.81 384.474C1719.79 377.838 1719.54 369.806 1719.8 363.295Z"/><path fill="#0065FF" d="M1719.92 687.902L1740.13 687.849L1740.09 709.16L1720 709.15L1719.92 687.902Z"/><path fill="#0065FF" d="M1462.85 495.992L1483.39 495.932L1483.34 517.176C1476.58 517.246 1469.75 517.173 1462.98 517.176L1462.85 495.992Z"/><path fill="#0065FF" d="M1026.18 806.8L1046.95 806.792C1046.96 813.958 1046.89 821.033 1046.97 828.212L1026.26 828.231C1026.18 821.087 1026.16 813.944 1026.18 806.8Z"/><path fill="#0065FF" d="M1406.91 829.625C1413.8 829.575 1420.68 829.568 1427.56 829.604C1427.44 836.261 1427.42 842.919 1427.52 849.576C1425.6 850.363 1425.16 850.552 1423.02 850.577L1407.04 850.647C1406.95 843.64 1406.91 836.633 1406.91 829.625Z"/><path fill="#0065FF" d="M1586.19 674.506C1592.83 674.441 1599.46 674.428 1606.1 674.468C1606.07 681.674 1606.09 688.88 1606.14 696.086L1585.98 696.064C1586 689.622 1585.7 680.685 1586.19 674.506Z"/><path fill="#0065FF" d="M1719.88 984.731L1740.36 984.656C1740.26 991.751 1740.21 998.846 1740.23 1005.94C1733.47 1005.85 1726.7 1005.83 1719.94 1005.88L1719.88 984.731Z"/><path fill="#0065FF" d="M1522.05 868.627C1528.74 868.636 1535.43 868.605 1542.12 868.535L1542.09 889.908L1522.07 889.913L1522.05 868.627Z"/><path fill="#0065FF" d="M1406.92 459.86C1413.73 459.749 1420.64 459.794 1427.46 459.77L1427.42 480.68L1406.99 480.824L1406.92 459.86Z"/><path fill="#0065FF" d="M1522.05 1056.63C1528.72 1056.59 1535.39 1056.59 1542.06 1056.63L1542.07 1077.94L1522.09 1077.93L1522.05 1056.63Z"/><path fill="#0065FF" d="M1407.22 540.312L1427.55 540.275C1427.65 547.282 1427.64 554.289 1427.54 561.296C1420.75 561.463 1413.96 561.406 1407.16 561.511C1407.09 554.748 1406.86 547.02 1407.22 540.312Z"/><path fill="#0065FF" d="M1650.06 589.383C1656.77 589.42 1663.47 589.375 1670.17 589.248C1670.14 595.381 1670.41 604.549 1669.93 610.41C1663.26 610.428 1656.65 610.603 1649.97 610.586C1650.02 603.797 1649.74 596.001 1650.06 589.383Z"/><path fill="#0065FF" d="M1730.01 799.525C1733.35 799.435 1736.84 799.238 1740.16 799.374C1740.15 801.568 1740.69 818.06 1739.45 819.862C1738.95 820.603 1732.28 820.279 1730.31 820.267C1728.68 820.26 1720.61 820.632 1720.32 819.706C1719.28 816.383 1719.65 803.035 1719.61 799.65C1722.99 799.425 1726.61 799.519 1730.01 799.525Z"/><path fill="#0065FF" d="M1407.18 374.609C1414.02 374.649 1420.85 374.65 1427.68 374.612C1427.71 381.32 1427.86 388.953 1427.61 395.587L1407.22 395.669C1407.13 388.798 1407.03 381.446 1407.18 374.609Z"/><path fill="#0065FF" d="M1719.98 1372.13C1726.67 1372.16 1733.36 1372.14 1740.04 1372.08C1740.01 1378.64 1740.28 1387.09 1739.84 1393.45L1719.94 1393.66C1719.87 1386.49 1719.89 1379.31 1719.98 1372.13Z"/><path fill="#0065FF" d="M1869.96 1232.43L1889.77 1232.45L1889.69 1253.83L1869.81 1253.91C1869.81 1247.04 1869.6 1239.19 1869.96 1232.43Z"/><path fill="#0065FF" d="M1247.85 641.063L1268.33 640.982C1268.28 648.073 1268.27 655.164 1268.32 662.254L1247.91 662.323C1247.9 655.329 1247.69 647.996 1247.85 641.063Z"/><path fill="#0065FF" d="M1793.87 350.222C1800.55 350.319 1807.17 350.268 1813.85 350.299C1813.81 357.215 1813.98 364.8 1813.73 371.621L1793.77 371.613C1793.77 364.57 1793.64 357.233 1793.87 350.222Z"/><path fill="#0065FF" d="M1586.05 609.307C1592.74 609.239 1599.44 609.304 1606.13 609.5C1606.09 616.484 1606.09 623.467 1606.14 630.45C1599.4 630.399 1592.67 630.391 1585.93 630.425C1585.99 623.554 1585.76 616.077 1586.05 609.307Z"/><path fill="#0065FF" d="M1586.09 752.206L1606.2 752.138L1606.14 773.325L1586.05 773.412C1586.02 766.442 1585.88 759.158 1586.09 752.206Z"/><path fill="#0065FF" d="M1793.69 684.61C1800.36 684.524 1807.04 684.546 1813.71 684.675L1813.72 705.814C1807.17 706.041 1800.32 705.905 1793.75 705.856C1793.8 698.774 1793.78 691.692 1793.69 684.61Z"/><path fill="#0065FF" d="M1026.21 701.967C1033.01 702.039 1039.82 702.04 1046.62 701.97L1046.45 723.739C1039.66 723.539 1033.06 723.537 1026.28 723.484L1026.21 701.967Z"/><path fill="#0065FF" d="M1720.04 580.308L1740.07 580.267C1740.06 586.304 1740.41 596.015 1739.78 601.535C1733.18 601.526 1726.57 601.571 1719.97 601.672C1719.94 594.795 1719.75 587.142 1720.04 580.308Z"/><path fill="#0065FF" d="M1521.97 943.947L1542.12 943.954C1542.16 951.029 1542.15 958.103 1542.1 965.178C1535.39 965.128 1528.69 965.128 1521.99 965.179L1521.97 943.947Z"/><path fill="#0065FF" d="M1463.11 576.446L1483.33 576.393C1483.38 583.424 1483.37 590.456 1483.29 597.486L1462.9 597.475C1462.85 591.795 1462.52 581.815 1463.11 576.446Z"/><path fill="#0065FF" d="M1793.58 236.169L1813.75 236.139L1813.74 257.018C1807.33 257.336 1800.08 257.181 1793.61 257.146L1793.58 236.169Z"/><path fill="#0065FF" d="M1650.1 705.244C1656.79 705.147 1663.49 705.115 1670.18 705.148L1670.15 726.335L1650.02 726.383C1650.06 719.444 1649.89 712.115 1650.1 705.244Z"/><path fill="#0065FF" d="M1719.81 475.045C1726.55 475.121 1733.3 475.08 1740.04 474.923C1740 481.992 1740.01 489.06 1740.05 496.129L1719.82 496.199C1719.82 489.233 1719.64 481.967 1719.81 475.045Z"/><path fill="#0065FF" d="M1407.01 695.019L1427.37 694.913C1427.45 701.95 1427.47 708.988 1427.42 716.025L1407.01 716.046C1406.93 709.263 1406.74 701.751 1407.01 695.019Z"/><path fill="#0065FF" d="M1522.05 714.663C1528.72 714.49 1535.44 714.57 1542.11 714.549L1542.07 735.607L1522.09 735.699L1522.05 714.663Z"/><path fill="#0065FF" d="M1586.12 514.24L1606.16 514.171L1606.1 535.377L1586.09 535.318C1586.06 528.37 1585.92 521.171 1586.12 514.24Z"/><path fill="#0065FF" d="M1586.11 1049.15L1606.12 1049.14L1606.11 1070.32C1599.41 1070.27 1592.71 1070.29 1586 1070.39C1586.07 1063.38 1585.88 1056.1 1586.11 1049.15Z"/><path fill="#0065FF" d="M1586.04 307.028L1606.03 306.916L1606.02 328.168C1599.36 328.129 1592.7 328.126 1586.03 328.157L1586.04 307.028Z"/><path fill="#0065FF" d="M1720.06 1216.46L1740.09 1216.36C1740.13 1223.05 1740.35 1231.08 1739.95 1237.63L1719.94 1237.71C1719.88 1231.4 1719.58 1222.61 1720.06 1216.46Z"/><path fill="#0065FF" d="M1522.04 794.733C1528.73 794.636 1535.49 794.7 1542.21 794.645L1542.14 816.001C1535.45 815.964 1528.76 815.96 1522.07 815.991L1522.04 794.733Z"/><path fill="#0065FF" d="M1793.66 1311.96L1813.74 1311.89C1813.66 1318.89 1813.66 1325.89 1813.72 1332.89C1807.45 1333.27 1800 1333.08 1793.66 1333.09L1793.66 1311.96Z"/><path fill="#0065FF" d="M1870.06 105.357C1876.74 105.442 1883.42 105.458 1890.1 105.407L1890.09 126.372L1869.97 126.442C1870 119.662 1869.77 112.055 1870.06 105.357Z"/><path fill="#0065FF" d="M1793.99 568.333L1814.03 568.307C1813.98 575.097 1814.19 582.971 1813.87 589.592L1793.87 589.648C1793.85 582.784 1793.67 575.114 1793.99 568.333Z"/><path fill="#0065FF" d="M1649.94 1182.87C1656.62 1182.92 1663.31 1182.88 1670 1182.75L1670.03 1203.89L1650.04 1203.89L1649.94 1182.87Z"/><path fill="#0065FF" d="M1719.96 903.816L1740.19 903.741L1740.23 924.717C1733.49 924.739 1726.74 924.723 1719.99 924.668L1719.96 903.816Z"/><path fill="#0065FF" d="M1650.15 910.319C1656.79 910.345 1663.43 910.331 1670.07 910.277C1670.06 915.785 1670.36 926.587 1669.75 931.527L1650.07 931.587C1650.06 924.791 1649.89 917.019 1650.15 910.319Z"/><path fill="#0065FF" d="M1719.88 1288.86C1726.62 1288.82 1733.37 1288.82 1740.11 1288.87L1740.09 1309.71L1719.91 1309.67L1719.88 1288.86Z"/><path fill="#0065FF" d="M1793.76 901.952C1800.43 901.979 1807.1 901.969 1813.76 901.923C1813.72 908.862 1813.71 915.802 1813.74 922.741C1807.31 923.114 1800.23 922.951 1793.75 922.943C1793.79 915.946 1793.8 908.949 1793.76 901.952Z"/><path fill="#0065FF" d="M1720.03 1133.27C1726.77 1133.36 1733.5 1133.39 1740.24 1133.34C1740.18 1140.29 1740.17 1147.24 1740.23 1154.19L1719.96 1154.23C1719.96 1147.44 1719.72 1139.94 1720.03 1133.27Z"/><path fill="#0065FF" d="M1586 1146.77L1606.06 1146.71L1606.03 1167.69L1586.06 1167.78C1586.08 1160.77 1586.06 1153.77 1586 1146.77Z"/><path fill="#0065FF" d="M1585.99 833.615C1592.69 833.576 1599.4 833.582 1606.11 833.633L1606.07 854.626C1599.29 854.623 1592.73 854.75 1585.96 854.829L1585.99 833.615Z"/><path fill="#0065FF" d="M1719.78 257.73C1726.57 257.771 1733.35 257.768 1740.14 257.721L1740.05 278.354L1719.86 278.43L1719.78 257.73Z"/><path fill="#0065FF" d="M1793.64 797.928C1800.36 797.978 1807.09 797.986 1813.81 797.953C1813.78 804.91 1813.79 811.868 1813.85 818.825L1793.67 818.748C1793.7 811.808 1793.69 804.868 1793.64 797.928Z"/><path fill="#0065FF" d="M1793.66 1234.56C1800.36 1234.62 1807.06 1234.62 1813.77 1234.56L1813.75 1255.46C1807.09 1255.53 1800.43 1255.54 1793.76 1255.49C1793.79 1248.51 1793.75 1241.53 1793.66 1234.56Z"/><path fill="#0065FF" d="M1522.09 1119.97L1542.09 1119.95C1542.08 1126.89 1542.19 1134.03 1542.05 1140.94L1522.12 1140.95L1522.09 1119.97Z"/><path fill="#0065FF" d="M1522.12 361.556C1528.8 361.503 1535.48 361.492 1542.16 361.524L1542.15 382.356C1535.45 382.297 1528.75 382.421 1522.05 382.411L1522.12 361.556Z"/><path fill="#0065FF" d="M1522.15 540.406C1528.82 540.39 1535.48 540.332 1542.14 540.231L1542.07 561.342L1522.1 561.269C1522.05 554.6 1521.88 547 1522.15 540.406Z"/><path fill="#0065FF" d="M1719.81 1057.95C1726.59 1058.03 1733.36 1058.07 1740.13 1058.05L1740.13 1078.62L1719.82 1078.64L1719.81 1057.95Z"/><path fill="#0065FF" d="M1870.09 1414.35L1889.86 1414.4L1889.88 1435.35C1883.23 1435.31 1876.59 1435.33 1869.95 1435.38C1869.94 1428.66 1869.75 1420.97 1870.09 1414.35Z"/><path fill="#0065FF" d="M1650.11 801.259C1656.85 801.126 1663.36 801.139 1670.11 801.126L1670.06 822.053L1650.06 822.11C1650.05 815.363 1649.89 807.963 1650.11 801.259Z"/><path fill="#0065FF" d="M1585.89 413.702L1606.07 413.682C1606.03 420.594 1606.02 427.506 1606.06 434.419L1585.89 434.535L1585.89 413.702Z"/><path fill="#0065FF" d="M1649.93 495.694C1656.68 495.633 1663.32 495.68 1670.08 495.555C1670.03 502.476 1670.03 509.396 1670.08 516.317C1663.4 516.306 1656.72 516.331 1650.04 516.392C1650.06 509.492 1650.02 502.593 1649.93 495.694Z"/><path fill="#0065FF" d="M1522.08 450.711C1528.74 450.64 1535.39 450.726 1542.08 450.629L1542.12 471.88C1535.46 471.806 1528.81 471.8 1522.15 471.86L1522.08 450.711Z"/><path fill="#0065FF" d="M1719.96 147.893L1740.19 147.805C1740.13 154.709 1740.11 161.614 1740.13 168.518L1720.05 168.591L1719.96 147.893Z"/><path fill="#0065FF" d="M1650.01 1260.03L1670.09 1259.97C1670.06 1266.75 1670.23 1274.04 1670 1280.74L1650.07 1280.88L1650.01 1260.03Z"/><path fill="#0065FF" d="M1522.06 1187.99C1528.75 1188.02 1535.44 1187.98 1542.12 1187.89C1542.1 1194.68 1542.26 1202.03 1542.03 1208.75L1522.1 1208.88L1522.06 1187.99Z"/><path fill="#0065FF" d="M1586.01 908.691C1592.66 908.735 1599.31 908.722 1605.96 908.654L1605.97 929.694C1599.35 929.757 1592.72 929.76 1586.09 929.703L1586.01 908.691Z"/><path fill="#0065FF" d="M1650.02 1016.99C1656.72 1017.01 1663.42 1016.99 1670.13 1016.94C1670.06 1023.77 1670.22 1031.04 1669.95 1037.79L1650.08 1037.86C1650.01 1030.91 1649.99 1023.95 1650.02 1016.99Z"/><path fill="#0065FF" d="M1650.05 387.188C1656.76 387.128 1663.38 387.176 1670.1 387.017C1670.11 394.026 1670.1 401.034 1670.04 408.042L1650.07 407.92C1650.03 401.095 1649.94 393.994 1650.05 387.188Z"/><path fill="#0065FF" d="M1793.93 458.499L1813.86 458.42C1813.81 465.355 1813.85 472.406 1813.73 479.318L1793.57 479.341C1793.57 474.136 1793.25 463.074 1793.93 458.499Z"/><path fill="#0065FF" d="M1586.18 220.329L1606.08 220.305L1606.04 241.172C1599.41 241.215 1592.78 241.224 1586.14 241.201C1586.11 234.458 1585.96 227.013 1586.18 220.329Z"/><path fill="#0065FF" d="M1650.24 1338.42L1670.14 1338.37C1670.12 1342.77 1670.51 1356 1669.56 1359.49L1650.11 1359.57C1650.11 1352.79 1649.91 1345.09 1650.24 1338.42Z"/><path fill="#0065FF" d="M1585.99 979.188L1605.96 979.047C1605.94 986.066 1605.96 993.086 1606.01 1000.1L1585.92 1000.16C1585.97 993.254 1585.8 986.032 1585.99 979.188Z"/><path fill="#0065FF" d="M1586.11 1221.95L1606.04 1221.89C1605.99 1228.67 1606.21 1236.04 1605.93 1242.72L1586.09 1242.78L1586.11 1221.95Z"/><path fill="#0065FF" d="M1522.09 273.111L1542.11 272.991C1542.07 280.033 1542.06 287.075 1542.09 294.118L1522.1 294.083C1522.11 287.15 1521.95 280.017 1522.09 273.111Z"/><path fill="#0065FF" d="M1522.03 999.718L1542.08 999.568C1542.02 1006.49 1542.01 1013.41 1542.06 1020.33C1535.4 1020.3 1528.73 1020.33 1522.07 1020.42L1522.03 999.718Z"/><path fill="#0065FF" d="M1522.11 633.041L1542.11 632.961C1542.14 639.953 1542.12 646.945 1542.05 653.936L1522.1 653.992C1522.05 647.009 1522.05 640.024 1522.11 633.041Z"/><path fill="#0065FF" d="M1650.15 177.432L1670.14 177.31L1670.08 197.938L1650.09 198.008C1650.12 191.302 1649.9 184.043 1650.15 177.432Z"/><path fill="#0065FF" d="M1793.58 121.855L1813.75 121.808L1813.69 142.11C1807.12 142.349 1800.2 142.221 1793.59 142.258C1793.65 135.457 1793.65 128.656 1793.58 121.855Z"/><path fill="#0065FF" d="M1586.05 1297.95L1606.23 1297.92C1606.17 1303.85 1606.42 1312.83 1605.93 1318.38L1586.09 1318.51L1586.05 1297.95Z"/><path fill="#0065FF" d="M1869.74 1138C1876.43 1138.03 1883.11 1138.03 1889.79 1137.98L1889.76 1158.62C1883.06 1158.72 1876.36 1158.77 1869.66 1158.76L1869.74 1138Z"/><path fill="#0065FF" d="M1949.91 90.9L1969.98 90.8071L1969.92 111.444L1949.98 111.514C1950 104.643 1949.97 97.7712 1949.91 90.9Z"/><path fill="#0065FF" d="M1521.96 1259.87L1542.04 1259.91C1542.01 1266.64 1542.2 1274.05 1541.91 1280.7L1522.01 1280.78C1522.04 1273.81 1522.02 1266.84 1521.96 1259.87Z"/><path fill="#0065FF" d="M1794.02 1131.33L1813.73 1131.21L1813.75 1152.02L1793.96 1151.95C1793.92 1145.45 1793.74 1137.73 1794.02 1131.33Z"/><path fill="#0065FF" d="M1793.81 1029.84L1813.57 1029.77L1813.52 1049.84C1809.09 1050.62 1798.82 1050.38 1793.83 1050.43C1793.87 1043.57 1793.86 1036.7 1793.81 1029.84Z"/><path fill="#0065FF" d="M1650.07 276.149L1669.93 276.061C1669.88 282.806 1670.06 290.029 1669.84 296.707C1663.24 296.708 1656.65 296.751 1650.05 296.836C1650.04 289.961 1650 283.019 1650.07 276.149Z"/><path fill="#0065FF" d="M1793.77 1401.38L1813.73 1401.36C1813.68 1408.2 1813.75 1415.08 1813.65 1421.91L1793.7 1421.97C1793.74 1415.27 1793.52 1407.97 1793.77 1401.38Z"/><path fill="#0065FF" d="M1650.04 1095.94C1656.74 1095.95 1663.44 1095.9 1670.14 1095.79L1670.13 1116.51C1663.43 1116.4 1656.73 1116.36 1650.03 1116.38L1650.04 1095.94Z"/><path fill="#0065FF" d="M1869.95 1319.82C1876.5 1319.84 1883.04 1319.82 1889.59 1319.76C1889.58 1326.52 1889.62 1333.27 1889.69 1340.03C1883.43 1340.31 1876.36 1340.13 1870.01 1340.12L1869.95 1319.82Z"/></svg>