<?xml version="1.0" encoding="utf-8" ?><svg xmlns="http://www.w3.org/2000/svg" xmlns:xlink="http://www.w3.org/1999/xlink" width="2560" height="1664" viewBox="0 0 2560 1664"><path fill="#0065FF" d="M1131.03 604.309C1199.27 598.718 1188.88 674.882 1188.87 719.469L1188.83 851.058C1189.71 850.133 1190.6 849.215 1191.49 848.304L1265.58 774.413C1276.94 763.121 1292.63 744.687 1305.89 736.314C1312.74 731.989 1321.06 730.293 1329.08 730.292C1341.06 730.289 1355.67 733.799 1364.17 742.604C1372.56 751.292 1377.72 762.492 1377.49 774.67C1377.29 784.81 1373.84 794.319 1368.51 802.865C1354.54 825.279 1301.39 872.888 1279.84 893.528C1297.94 910.955 1315.87 928.567 1333.62 946.36C1356.77 969.302 1374.28 979.512 1378.88 1013.5C1379.23 1043.48 1363.57 1060.74 1333.03 1060.7C1301.9 1060.66 1278.9 1029.58 1258.21 1008.79C1234.46 985.345 1211.01 961.61 1187.85 937.59C1187.31 977.655 1199.73 1046.99 1149.53 1060.78C1121.9 1068.37 1090.18 1049.34 1085.07 1020.99C1081.44 1000.85 1083.03 975.643 1083.02 954.642L1082.96 828.902L1082.96 716.21C1082.96 696.27 1082.66 676.324 1083.48 656.403C1084.69 627.155 1103.96 610.519 1131.03 604.309Z"/><path fill="#0065FF" d="M299.692 730.407C351.271 725.268 405.25 746.758 437.876 787.547C480.639 841.008 410.287 916.311 363.706 857.211C342.082 829.776 298.892 826.57 272.012 846.838C258.82 856.872 250.144 871.727 247.887 888.148C245.616 904.401 250.063 920.879 260.205 933.782C271.071 947.617 287.046 956.499 304.532 958.427C339.564 962.339 354.893 945.104 375.867 922.78C381.782 916.484 396.143 914.307 404.809 915.483C420.759 917.649 431.169 925.07 441.005 937.714C446.332 945.198 449.705 953.894 450.816 963.013C456.932 1017.36 375.503 1060.6 329.689 1063.01C280.039 1065.61 240.152 1057.14 201.047 1024.44C167.111 996.193 145.854 955.568 141.994 911.584C133.883 814.006 203.474 738.421 299.692 730.407Z"/><path fill="#0065FF" d="M909.362 730.395C920.666 729.658 932.014 729.95 943.266 731.27C981.95 735.767 1017.36 753.158 1042.74 783.239C1063.61 807.991 1063.15 848.62 1035.99 868.778C1028.94 873.946 1020.68 877.204 1012.01 878.237C971.784 882.879 971.459 838.526 929.128 834.38C910.686 832.574 891.834 836.133 877.028 847.871C864.145 858.087 855.906 873.05 854.162 889.399C852.264 905.696 856.946 922.077 867.171 934.909C890.268 963.372 938.634 967.846 964.499 940.462C978.768 925.356 988.325 912.116 1011.83 915.429C1028.26 917.744 1038.25 925.465 1048.24 938.29C1063.76 963.302 1059.63 987.945 1041.37 1010.04C1010.49 1047.42 964.011 1065.42 916.141 1063.55C877.309 1062.02 843.063 1049.77 812.921 1025.01C778.541 996.773 756.672 956.128 752.051 911.879C747.608 868.172 761.133 824.538 789.516 791.005C820.769 753.649 861.496 734.808 909.362 730.395Z"/><path fill="#0065FF" d="M525.407 604.268C547.758 602.476 574.939 615.872 578.83 639.922C582.727 664.019 581.166 694.268 581.249 719.042L581.252 866.213L581.25 958.922C581.297 977.157 582.503 998.388 580.245 1016.13C577.099 1040.87 555.679 1057.34 532.595 1061.3C508.369 1061.01 484.122 1048.49 478.645 1022.45C474.532 1002.89 476.537 975.082 476.466 954.505C476.131 914.29 476.052 874.074 476.232 833.859L475.977 716.337C475.952 696.55 475.421 676.628 476.306 656.877C477.637 627.15 497.576 609.566 525.407 604.268Z"/><path fill="#0065FF" d="M672.32 736.187C697.298 733.772 721.115 748.672 726.407 773.566C730.639 793.477 729.432 817.307 729.32 837.79L729.047 908.985L729.174 972.12C729.167 1013.43 731.1 1049.82 681.383 1059.97C657.019 1060.44 632.411 1047.29 626.229 1021.79C622.005 1004.37 623.533 978.708 623.513 960.167L623.503 877.296C623.514 855.848 623.407 834.183 623.415 812.85C623.424 791.711 622.132 772.488 636.804 755.7C647.489 743.474 657.028 739.585 672.32 736.187Z"/><path fill="#0065FF" d="M667.109 602.553C698.335 596.341 728.638 616.775 734.584 648.052C740.53 679.33 719.84 709.458 688.513 715.138C657.56 720.75 627.871 700.361 621.995 669.457C616.12 638.553 636.256 608.691 667.109 602.553Z"/><path fill="#F4F7FB" d="M1537.94 736.181C1543.96 735.014 1578.5 734.885 1584.64 736.72C1589.38 737.296 1600.63 736.993 1605.83 737.002C1605.84 742.389 1605.52 756.796 1606.19 761.354C1607.78 766.511 1608.31 806.025 1606.05 809.785L1604.77 811.455C1601.81 812.814 1554.52 812.973 1551.2 811.428L1549.89 809.885C1547.48 805.767 1548.63 782.148 1548.59 775.494C1553.75 774.871 1557.08 774.466 1562.19 773.506C1557.83 773.464 1548.51 773.192 1544.4 771.757C1543.7 771.626 1538.11 770.911 1538.07 770.373C1537.24 760.366 1537.13 746.081 1537.94 736.181Z"/><path fill="#0065FF" d="M1537.94 736.181C1545.46 737.32 1561.93 736.852 1570.28 736.831L1570.26 771.186C1564.36 771.171 1549.47 770.562 1544.4 771.757C1543.7 771.626 1538.11 770.911 1538.07 770.373C1537.24 760.366 1537.13 746.081 1537.94 736.181Z"/><path fill="#0065FF" d="M1584.64 736.72C1589.38 737.296 1600.63 736.993 1605.83 737.002C1605.84 742.389 1605.52 756.796 1606.19 761.354C1605.59 772.669 1608.13 771.486 1596.01 771.415C1589.03 771.375 1581.82 771.346 1574.83 771.37C1574.8 763.29 1574.85 755.062 1574.82 746.997C1574.78 735.063 1573.35 737.155 1584.64 736.72Z"/><path fill="#0065FF" d="M1574.73 777.255L1605.87 777.178C1605.86 787.225 1605.46 800.036 1606.05 809.785L1604.77 811.455C1597.78 810.635 1582.5 811.076 1574.81 811.097L1574.73 777.255Z"/><path fill="#0065FF" d="M1550.03 777.648L1570.36 777.627L1570.36 811.093C1564.54 811.077 1556.8 810.807 1551.2 811.428L1549.89 809.885C1550.33 799.844 1549.98 787.893 1550.03 777.648Z"/><path fill="#0065FF" d="M1687.76 744.665C1690.58 740.246 1704.94 743.455 1710.59 742.508C1713.15 742.079 1719.02 742.351 1721.5 743.36C1723.26 744.08 1724.01 740.44 1726.48 741.777C1732.25 744.056 1752.12 740.621 1756.05 743.749C1755.93 754.32 1755.54 769.06 1756.28 779.3C1754.33 783.115 1749.64 780.988 1756.19 785.491C1747.58 785.69 1731.94 786.014 1723.78 785.069C1724.82 783.523 1727.34 782.211 1726.8 781.323C1716.13 780.367 1700.81 782.041 1690.51 779.285C1687.12 777.392 1687.87 777.107 1687.85 772.96C1687.8 763.535 1688.04 754.087 1687.76 744.665Z"/><path fill="#0065FF" d="M1687.76 744.665C1694.21 745.536 1712.02 745.05 1719.36 745.082L1719.38 778.694C1710.86 778.663 1698.53 778.124 1690.51 779.285C1687.12 777.392 1687.87 777.107 1687.85 772.96C1687.8 763.535 1688.04 754.087 1687.76 744.665Z"/><path fill="#F4F7FB" d="M1687.76 744.665C1690.58 740.246 1704.94 743.455 1710.59 742.508C1713.15 742.079 1719.02 742.351 1721.5 743.36C1723.26 744.08 1724.01 740.44 1726.48 741.777C1732.25 744.056 1752.12 740.621 1756.05 743.749C1750.21 745.597 1731.69 744.86 1724.46 744.918L1724.35 778.814C1730.8 778.845 1750.79 778.396 1756.28 779.3C1754.33 783.115 1749.64 780.988 1756.19 785.491C1747.58 785.69 1731.94 786.014 1723.78 785.069C1724.82 783.523 1727.34 782.211 1726.8 781.323C1716.13 780.367 1700.81 782.041 1690.51 779.285C1698.53 778.124 1710.86 778.663 1719.38 778.694L1719.36 745.082C1712.02 745.05 1694.21 745.536 1687.76 744.665Z"/><path fill="#0065FF" d="M2380.29 735.917C2383.52 735.346 2383.7 736.753 2387.42 736.557C2397.56 735.815 2410.54 736.208 2420.93 736.174C2420.92 748.36 2421.25 761.62 2420.85 773.66C2411.96 775.899 2395.2 773.936 2385.62 774.221C2383.91 774.272 2385.11 765.908 2383.59 763.243L2384.06 763.618C2383.73 763.214 2383.92 763.317 2383.57 763.206C2382.56 764.957 2385.2 770.016 2382.14 772.709L2347.65 772.619L2347.63 736.456C2357.27 736.481 2371.08 736.981 2380.29 735.917Z"/><path fill="#0065FF" d="M2380.29 735.917C2383.69 739.853 2380.59 764.418 2382.14 772.709L2347.65 772.619L2347.63 736.456C2357.27 736.481 2371.08 736.981 2380.29 735.917Z"/><path fill="#F4F7FB" d="M2380.29 735.917C2383.52 735.346 2383.7 736.753 2387.42 736.557C2387.72 748.226 2387.32 760.983 2387.31 772.75C2395.72 772.754 2413.51 772.164 2420.85 773.66C2411.96 775.899 2395.2 773.936 2385.62 774.221C2383.91 774.272 2385.11 765.908 2383.59 763.243L2384.06 763.618C2383.73 763.214 2383.92 763.317 2383.57 763.206C2382.56 764.957 2385.2 770.016 2382.14 772.709C2380.59 764.418 2383.69 739.853 2380.29 735.917Z"/><path fill="#0065FF" d="M2204.5 945.51C2210.84 945.51 2271.15 947.284 2272.6 947.949C2273.93 954.969 2273.36 976.318 2273.42 984.49C2254.26 984.494 2235.13 984.331 2216 984.495C2211.36 984.535 2208.17 985.735 2205.2 982.387C2204.01 975.791 2204.52 953.347 2204.5 945.51Z"/><path fill="#0065FF" d="M2205.9 948.214L2236.1 948.239L2236.06 982.017C2228.36 982.036 2212.15 981.543 2205.2 982.387C2206.51 973.754 2205.86 957.597 2205.9 948.214Z"/><path fill="#F4F7FB" d="M2204.5 945.51C2210.84 945.51 2271.15 947.284 2272.6 947.949C2265.63 949.121 2247.93 948.623 2239.99 948.582L2239.98 982.418L2271.88 982.421C2271.89 973.731 2271.29 955.745 2272.6 947.949C2273.93 954.969 2273.36 976.318 2273.42 984.49C2254.26 984.494 2235.13 984.331 2216 984.495C2211.36 984.535 2208.17 985.735 2205.2 982.387C2212.15 981.543 2228.36 982.036 2236.06 982.017L2236.1 948.239L2205.9 948.214C2205.86 957.597 2206.51 973.754 2205.2 982.387C2204.01 975.791 2204.52 953.347 2204.5 945.51Z"/><path fill="#0065FF" d="M1781.79 904.675C1785.67 901.99 1809.07 904.245 1814.92 903.541C1815.6 903.459 1815.98 904.846 1816.75 904.487C1817.79 904.001 1817.75 902.862 1819.02 902.639C1828.15 906.471 1839.24 903.364 1849.36 905.184C1849.45 917.27 1849.46 929.357 1849.39 941.444C1845.06 943.872 1823.11 941.992 1816.9 942.249C1816.42 942.27 1816.09 940.435 1816.07 940.359L1815.38 939.633L1815.41 939.609L1815.22 940.1C1816.23 946.381 1786.07 942.585 1781.88 940.983C1781.52 929.34 1781.81 916.44 1781.79 904.675Z"/><path fill="#0065FF" d="M1781.79 904.675C1786.36 906.003 1806.59 905.525 1812.98 905.539L1813.03 940.383C1804.5 940.35 1789.78 939.755 1781.88 940.983C1781.52 929.34 1781.81 916.44 1781.79 904.675Z"/><path fill="#F4F7FB" d="M1781.79 904.675C1785.67 901.99 1809.07 904.245 1814.92 903.541C1815.6 903.459 1815.98 904.846 1816.75 904.487C1817.79 904.001 1817.75 902.862 1819.02 902.639C1828.15 906.471 1839.24 903.364 1849.36 905.184C1841.26 906.334 1826.75 905.829 1817.99 905.857L1817.94 940.365C1825.96 940.366 1842.92 939.67 1849.39 941.444C1845.06 943.872 1823.11 941.992 1816.9 942.249C1816.42 942.27 1816.09 940.435 1816.07 940.359L1815.38 939.633L1815.41 939.609L1815.22 940.1C1816.23 946.381 1786.07 942.585 1781.88 940.983C1789.78 939.755 1804.5 940.35 1813.03 940.383L1812.98 905.539C1806.59 905.525 1786.36 906.003 1781.79 904.675Z"/><path fill="#0065FF" d="M2168.05 869.202C2173.82 868.012 2195.35 868.526 2202.5 868.51C2202.44 880.018 2202.83 892.821 2201.45 904.252C2201.13 906.952 2202.98 910.478 2202.45 913.503C2202.3 923.776 2202.76 934.224 2202.44 944.495C2197 944.475 2170.65 945.376 2167.97 943.345L2168 908.179C2168.04 906.253 2168.02 904.616 2167.96 902.7C2168.11 891.564 2167.98 880.354 2168.05 869.202Z"/><path fill="#0065FF" d="M2168.05 869.202C2175.59 870.405 2192.09 869.886 2200.4 869.891C2200.5 880.822 2200.5 891.754 2200.4 902.685C2189.64 902.656 2178.69 902.819 2167.96 902.7C2168.11 891.564 2167.98 880.354 2168.05 869.202Z"/><path fill="#F4F7FB" d="M2168.05 869.202C2173.82 868.012 2195.35 868.526 2202.5 868.51C2202.44 880.018 2202.83 892.821 2201.45 904.252C2201.13 906.952 2202.98 910.478 2202.45 913.503C2202.3 923.776 2202.76 934.224 2202.44 944.495C2197 944.475 2170.65 945.376 2167.97 943.345C2172.48 942.274 2194.37 942.707 2200.3 942.668L2200.27 908.14L2168 908.179C2168.04 906.253 2168.02 904.616 2167.96 902.7C2178.69 902.819 2189.64 902.656 2200.4 902.685C2200.5 891.754 2200.5 880.822 2200.4 869.891C2192.09 869.886 2175.59 870.405 2168.05 869.202Z"/><path fill="#0065FF" d="M1857.07 736.27C1864.55 734.579 1879.58 735.704 1887.5 735.936C1894.55 736.143 1917 733.704 1921.68 737.053L1922.14 738.033C1924.43 742.313 1923.54 769.032 1923.26 775.067C1919.52 774.554 1915.16 773.496 1911.5 773.352C1904.91 773.093 1898.12 773.42 1891.51 773.318C1889.48 773.277 1889.18 770.746 1887.36 773.601C1887.14 773.933 1886.31 774.627 1885.95 774.516C1878.07 772.072 1864.05 774.302 1856.98 771.94C1856.81 760.833 1856.69 747.292 1857.07 736.27Z"/><path fill="#0065FF" d="M1857.07 736.27C1864.18 737.512 1878.72 737.048 1886.5 737.009L1886.49 771.295C1878.6 771.212 1864.32 770.703 1856.98 771.94C1856.81 760.833 1856.69 747.292 1857.07 736.27Z"/><path fill="#F4F7FB" d="M1857.07 736.27C1864.55 734.579 1879.58 735.704 1887.5 735.936C1894.55 736.143 1917 733.704 1921.68 737.053C1911.84 736.774 1901.05 736.994 1891.13 736.993L1891.17 771.598L1922.1 771.624C1922.06 760.607 1921.89 749.005 1922.14 738.033C1924.43 742.313 1923.54 769.032 1923.26 775.067C1919.52 774.554 1915.16 773.496 1911.5 773.352C1904.91 773.093 1898.12 773.42 1891.51 773.318C1889.48 773.277 1889.18 770.746 1887.36 773.601C1887.14 773.933 1886.31 774.627 1885.95 774.516C1878.07 772.072 1864.05 774.302 1856.98 771.94C1864.32 770.703 1878.6 771.212 1886.49 771.295L1886.5 737.009C1878.72 737.048 1864.18 737.512 1857.07 736.27Z"/><path fill="#0065FF" d="M1812.84 820.256L1813.71 820.016C1819.65 818.325 1843.78 817.706 1849.48 819.464C1849.6 831.857 1849.64 844.25 1849.59 856.643L1817.3 856.481C1815.86 851.148 1816.92 844.042 1816.37 842.38L1816.24 842.39C1814.82 844.811 1815.49 853.994 1815.49 857.49C1811.57 857.478 1799.44 858.319 1797.27 856.436C1792.15 856.369 1787.03 856.35 1781.91 856.379L1782.04 820.509L1812.84 820.256Z"/><path fill="#0065FF" d="M1812.84 820.256C1813.55 829.005 1813.07 847.269 1813 856.457C1807.81 856.411 1802.45 856.323 1797.27 856.436C1792.15 856.369 1787.03 856.35 1781.91 856.379L1782.04 820.509L1812.84 820.256Z"/><path fill="#F4F7FB" d="M1812.84 820.256L1813.71 820.016C1819.65 818.325 1843.78 817.706 1849.48 819.464C1843.14 820.935 1825.69 820.372 1818.18 820.463C1818.14 828.265 1818.67 849.787 1817.3 856.481C1815.86 851.148 1816.92 844.042 1816.37 842.38L1816.24 842.39C1814.82 844.811 1815.49 853.994 1815.49 857.49C1811.57 857.478 1799.44 858.319 1797.27 856.436C1802.45 856.323 1807.81 856.411 1813 856.457C1813.07 847.269 1813.55 829.005 1812.84 820.256Z"/><path fill="#0065FF" d="M1504.43 800.942L1534.91 800.982L1535.03 830.88L1504.96 830.804C1504.96 836.086 1505.31 857.864 1504.64 861.899L1472.68 861.802L1472.84 830.843L1504.42 830.871L1504.43 800.942Z"/><path fill="#0065FF" d="M1626.56 949.313C1634.02 947.474 1645.02 949.843 1651.04 948.023C1661.43 947.766 1672.32 947.911 1682.77 947.902L1682.71 981.42C1672.22 981.406 1661.48 981.555 1651.02 981.296C1645.97 977.002 1634.69 980.797 1626.51 978.785C1626.46 968.961 1626.47 959.137 1626.56 949.313Z"/><path fill="#0065FF" d="M1626.56 949.313C1634.02 947.474 1645.02 949.843 1651.04 948.023C1650.81 958.729 1650.93 970.552 1651.02 981.296C1645.97 977.002 1634.69 980.797 1626.51 978.785C1626.46 968.961 1626.47 959.137 1626.56 949.313Z"/><path fill="#F4F7FB" d="M1626.56 949.313C1634.02 947.474 1645.02 949.843 1651.04 948.023C1650.81 958.729 1650.93 970.552 1651.02 981.296C1645.97 977.002 1634.69 980.797 1626.51 978.785C1632.77 977.634 1640.57 978.028 1647.12 978.026L1647.31 950.015C1640.9 950.051 1632.64 950.491 1626.56 949.313Z"/><path fill="#0065FF" d="M2091.11 780.837L2125.99 780.846C2126.01 792.96 2126.29 806.784 2125.88 818.773L2091.03 818.847L2091.11 780.837Z"/><path fill="#0065FF" d="M2347.46 825.755L2381.92 825.745C2381.89 838.018 2381.61 851.25 2381.93 863.449C2376.64 863.989 2353.84 863.942 2347.95 863.532C2347.04 856.458 2347.47 833.587 2347.46 825.755Z"/><path fill="#0065FF" d="M2132 825.602L2165.15 825.627L2165.08 864.931L2132.19 864.871C2132.23 851.781 2132.16 838.691 2132 825.602Z"/><path fill="#0065FF" d="M2347.79 780.778L2381.65 780.787L2381.64 818.518L2347.74 818.399L2347.79 780.778Z"/><path fill="#0065FF" d="M2130.98 780.821C2142.06 780.628 2153.68 780.827 2164.82 780.823L2164.85 818.918C2153.73 819.09 2142.16 818.847 2130.99 818.854L2130.98 780.821Z"/><path fill="#0065FF" d="M2347.95 863.532C2353.84 863.942 2376.64 863.989 2381.93 863.449C2382.91 864.535 2383.75 865.547 2384.67 866.679C2384.28 877.638 2384.64 890.061 2384.67 901.118C2373.5 901.09 2362.33 901.006 2351.15 900.865C2349.52 892.112 2351.01 877.229 2350.8 867.963C2350.73 864.504 2351.8 866.093 2347.95 863.532Z"/><path fill="#F4F7FB" d="M2347.95 863.532C2353.84 863.942 2376.64 863.989 2381.93 863.449C2382.91 864.535 2383.75 865.547 2384.67 866.679C2374.3 867.314 2362.36 867.034 2351.87 867.07C2351.85 875.653 2352.25 893.32 2351.15 900.865C2349.52 892.112 2351.01 877.229 2350.8 867.963C2350.73 864.504 2351.8 866.093 2347.95 863.532Z"/><path fill="#0065FF" d="M2319.02 825.503C2325.67 825.444 2332.32 825.436 2338.97 825.479L2338.97 863.601L2325.94 863.631L2305.7 863.783L2305.86 825.563C2310.25 825.58 2314.63 825.559 2319.02 825.503Z"/><path fill="#0065FF" d="M2106.42 736.513L2125.8 736.366L2125.68 772.792L2107.75 772.77L2090.94 772.762C2090.91 760.701 2090.99 748.64 2091.2 736.58C2096.27 736.593 2101.34 736.571 2106.42 736.513Z"/><path fill="#0065FF" d="M2387.51 780.844L2420.96 780.827L2420.95 818.396C2409.79 818.495 2398.63 818.527 2387.47 818.49L2387.51 780.844Z"/><path fill="#0065FF" d="M2131.05 736.315L2164.39 736.412C2164.42 748.569 2164.64 760.885 2164.52 773.006L2130.97 772.955C2130.97 761.401 2130.63 747.658 2131.05 736.315Z"/><path fill="#0065FF" d="M2174.12 825.895L2205.66 825.941C2205.66 838.508 2205.92 852.1 2205.6 864.556L2174.13 864.577L2174.12 825.895Z"/><path fill="#0065FF" d="M1930.99 864.934L1964.24 864.872L1964.35 900.496L1931.01 900.348L1930.99 864.934Z"/><path fill="#0065FF" d="M2005.6 864.916L2039.1 864.945L2039.06 900.333C2028 900.502 2016.72 900.405 2005.64 900.423L2005.6 864.916Z"/><path fill="#0065FF" d="M1930.84 778.12L1963.51 778.027L1963.72 813.756C1952.96 814.015 1941.68 813.755 1930.86 813.79L1930.84 778.12Z"/><path fill="#0065FF" d="M1968.67 778.245L2000.62 778.191L2000.72 813.951C1990.43 814.278 1978.92 813.983 1968.52 814L1968.67 778.245Z"/><path fill="#0065FF" d="M1685.86 623.264L1719.42 623.194C1719.35 634.605 1719.56 646.418 1719.3 657.775L1685.7 657.744C1685.69 646.667 1685.52 634.28 1685.86 623.264Z"/><path fill="#0065FF" d="M1930.93 736.805C1941.88 736.683 1952.84 736.649 1963.79 736.705L1963.79 771.699C1952.9 771.834 1941.86 771.731 1930.95 771.732L1930.93 736.805Z"/><path fill="#0065FF" d="M2005.89 820.619L2037.85 820.587C2037.89 832.498 2037.87 844.408 2037.78 856.317C2027.45 856.607 2016.26 856.332 2005.83 856.334L2005.89 820.619Z"/><path fill="#0065FF" d="M1968.7 736.626L2000.41 736.635L2000.59 771.898C1990.97 772.351 1978.52 771.966 1968.68 771.954L1968.7 736.626Z"/><path fill="#0065FF" d="M1930.74 987.304L1964.06 987.288C1964.02 997.794 1964.46 1011.42 1963.91 1021.56L1930.62 1021.49C1930.66 1010.48 1930.41 998.198 1930.74 987.304Z"/><path fill="#0065FF" d="M2005.81 778.246L2037.5 778.269C2037.6 790.152 2037.62 802.036 2037.58 813.919L2005.77 813.947C2005.76 802.297 2005.52 789.82 2005.81 778.246Z"/><path fill="#0065FF" d="M1969.02 864.845L2000.71 864.806C2000.76 876.168 2000.9 889.194 2000.56 900.488L1968.89 900.661C1968.91 888.808 1968.84 876.676 1969.02 864.845Z"/><path fill="#0065FF" d="M1854.94 778.145L1886.5 778.063C1886.47 789.847 1886.61 802.147 1886.35 813.877L1854.88 813.89C1854.91 802.09 1854.74 789.886 1854.94 778.145Z"/><path fill="#0065FF" d="M1890.12 865.02L1921.97 864.945L1921.88 900.328C1911.33 900.311 1900.77 900.224 1890.22 900.068C1890.09 888.386 1890.06 876.703 1890.12 865.02Z"/><path fill="#0065FF" d="M2239.93 1027.76L2272.1 1027.65L2272.09 1062.53C2261.35 1062.62 2250.61 1062.63 2239.87 1062.58L2239.93 1027.76Z"/><path fill="#0065FF" d="M2043.02 820.346C2053.32 820.29 2063.62 820.287 2073.92 820.335L2073.83 856.415L2042.86 856.403C2042.92 845.019 2042.57 831.556 2043.02 820.346Z"/><path fill="#0065FF" d="M1930.6 1027.14L1964.24 1027.11L1964.24 1060.19C1953.02 1060.1 1941.8 1060.06 1930.58 1060.1L1930.6 1027.14Z"/><path fill="#0065FF" d="M2005.37 987.67L2037.8 987.693L2037.71 1021.74L2005.43 1021.58L2005.37 987.67Z"/><path fill="#0065FF" d="M1723.97 623.128L1755.98 623.138C1755.97 634.684 1756.11 646.371 1755.96 657.9L1723.85 657.794C1723.86 646.484 1723.71 634.367 1723.97 623.128Z"/><path fill="#0065FF" d="M1891 778.283L1922.17 778.223C1922.15 789.972 1922.31 802.172 1922.06 813.874L1890.88 813.88C1890.9 802.441 1890.63 789.558 1891 778.283Z"/><path fill="#0065FF" d="M2316.51 948.01L2348.57 947.916L2348.62 982.116L2316.49 982.098L2316.51 948.01Z"/><path fill="#0065FF" d="M2280.91 1028.62L2313.36 1028.54L2313.38 1062.75C2302.54 1062.79 2291.69 1062.75 2280.85 1062.62L2280.91 1028.62Z"/><path fill="#0065FF" d="M2316.04 909.558L2348.86 909.611L2348.81 942.982C2338.14 943.276 2326.69 943.116 2315.99 943.103L2316.04 909.558Z"/><path fill="#0065FF" d="M1818.34 778.223L1849.42 778.11L1849.25 813.481L1818.43 813.407L1818.34 778.223Z"/><path fill="#0065FF" d="M2038.4 953.783L2072.25 953.666C2072.36 964.546 2072.4 975.427 2072.35 986.307C2061.08 986.203 2049.81 986.179 2038.54 986.237L2038.4 953.783Z"/><path fill="#0065FF" d="M1968.65 987.328L2000.69 987.232C2000.69 994.891 2001.24 1014.68 2000.48 1021.59L1968.46 1021.61C1968.44 1010.18 1968.5 998.754 1968.65 987.328Z"/><path fill="#0065FF" d="M2278.24 909.369L2310.73 909.352L2310.74 942.859L2278.09 942.897C2278.08 932.264 2277.83 919.85 2278.24 909.369Z"/><path fill="#0065FF" d="M1570.89 1027.94C1581.21 1027.81 1591.66 1027.91 1601.99 1027.9L1602.07 1062.89L1570.84 1062.92L1570.89 1027.94Z"/><path fill="#0065FF" d="M1723.78 785.069C1731.94 786.014 1747.58 785.69 1756.19 785.491C1755.89 796.706 1756.04 808.645 1756.05 819.918L1724.23 819.767C1724.17 811.179 1724.79 792.605 1723.78 785.069Z"/><path fill="#0065FF" d="M2240.12 987.858C2250.63 987.641 2261.49 987.783 2272.03 987.796L2272.06 1021.74L2240.06 1021.78L2240.12 987.858Z"/><path fill="#0065FF" d="M1818.02 947.92L1849.44 947.9L1849.45 982.153L1817.97 982.098L1818.02 947.92Z"/><path fill="#0065FF" d="M1534.17 1028.01L1564.88 1028.01L1564.88 1063.04L1534.18 1063.03L1534.17 1028.01Z"/><path fill="#0065FF" d="M1781.86 864.319L1813 864.219L1812.91 898.841L1781.74 898.846C1781.73 888.469 1781.28 874.263 1781.86 864.319Z"/><path fill="#0065FF" d="M2167.96 947.863L2199.75 947.914L2199.69 981.747C2189.56 982.021 2178.26 981.847 2168.08 981.751C2167.96 970.455 2167.92 959.159 2167.96 947.863Z"/><path fill="#0065FF" d="M1687.68 865.721L1719.31 865.655L1719.29 899.585L1687.69 899.513L1687.68 865.721Z"/><path fill="#0065FF" d="M1724.25 865.745C1734.38 865.417 1745.7 865.667 1755.93 865.671C1755.99 876.967 1755.98 888.264 1755.89 899.559L1724.2 899.589L1724.25 865.745Z"/><path fill="#0065FF" d="M2280.88 988.237L2313.02 988.223C2312.99 999.451 2313.11 1010.76 2312.98 1021.98L2280.84 1021.94C2280.83 1011.03 2280.59 999.051 2280.88 988.237Z"/><path fill="#0065FF" d="M1818.14 987.724C1828.51 987.492 1839.36 987.655 1849.77 987.651L1849.88 1021.57C1839.62 1021.88 1828.54 1021.71 1818.2 1021.71L1818.14 987.724Z"/><path fill="#0065FF" d="M2280.3 948.767L2312.4 948.789C2312.42 959.806 2312.53 971.131 2312.38 982.123L2280.19 982.144L2280.3 948.767Z"/><path fill="#0065FF" d="M1818.09 864.313L1849.23 864.196C1849.2 875.331 1849.55 887.714 1849.15 898.729L1817.97 898.693C1817.97 887.912 1817.64 874.861 1818.09 864.313Z"/><path fill="#0065FF" d="M1724.16 947.864L1755.9 947.881L1755.79 981.358L1724.18 981.301L1724.16 947.864Z"/><path fill="#0065FF" d="M1687.75 785.773L1719.14 785.767L1719.09 819.555L1687.77 819.452L1687.75 785.773Z"/><path fill="#0065FF" d="M1651.26 987.933L1682.69 987.916C1682.78 999.207 1682.78 1010.5 1682.71 1021.79C1672.18 1021.81 1661.66 1021.78 1651.14 1021.67L1651.26 987.933Z"/><path fill="#0065FF" d="M1781.84 948.001L1813.1 947.919L1813.06 982.112C1802.67 982.16 1792.28 982.15 1781.88 982.08L1781.84 948.001Z"/><path fill="#0065FF" d="M1854.68 948.226L1885.9 948.363L1885.88 982.232C1875.53 982.365 1865.01 982.21 1854.63 982.261L1854.68 948.226Z"/><path fill="#0065FF" d="M1687.42 825.668L1718.93 825.775C1718.95 834.382 1719.51 851.801 1718.75 859.547L1687.47 859.485L1687.42 825.668Z"/><path fill="#0065FF" d="M1651.3 785.716C1661.39 785.42 1672.64 785.631 1682.79 785.625L1682.8 819.293C1672.55 819.521 1661.62 819.323 1651.35 819.273L1651.3 785.716Z"/><path fill="#0065FF" d="M1687.81 987.881L1719.12 987.908L1719.11 1021.41L1687.74 1021.38L1687.81 987.881Z"/><path fill="#0065FF" d="M1651.45 665.29L1683.11 665.19C1683.04 676.169 1683.3 687.931 1682.97 698.79L1651.23 698.785C1651.19 688.555 1650.88 675.403 1651.45 665.29Z"/><path fill="#0065FF" d="M1724.3 826.004L1755.85 826.04C1755.88 837.011 1756.13 848.857 1755.84 859.742L1724.26 859.526C1724.21 848.352 1724.22 837.178 1724.3 826.004Z"/><path fill="#0065FF" d="M1571.07 987.131L1602.11 987.005L1602 1021.14L1571 1021.09C1570.94 1009.77 1570.96 998.452 1571.07 987.131Z"/><path fill="#0065FF" d="M2044.08 865.1L2074.06 865.179L2074.02 900.408C2064.02 900.337 2054.03 900.319 2044.04 900.355L2044.08 865.1Z"/><path fill="#0065FF" d="M1687.8 947.823L1719.07 947.8L1719.13 981.25L1687.8 981.182L1687.8 947.823Z"/><path fill="#0065FF" d="M1855.1 864.19L1885.9 864.219C1885.93 875.353 1886.2 887.744 1885.91 898.754L1855.03 898.64C1855.05 887.265 1854.91 875.53 1855.1 864.19Z"/><path fill="#0065FF" d="M1854.74 987.942L1886.3 987.939C1886.26 997.436 1886.81 1012.69 1886.14 1021.54L1854.7 1021.47C1854.78 1010.29 1854.79 999.118 1854.74 987.942Z"/><path fill="#0065FF" d="M2205.3 908.273C2215.61 908.214 2225.9 908.344 2236.21 908.099C2236.15 917.795 2236.82 933.688 2236.12 942.541L2205.28 942.471L2205.3 908.273Z"/><path fill="#0065FF" d="M1891.45 987.489L1922.49 987.495L1922.49 1021.29L1891.38 1021.24C1891.33 1010.21 1891.25 998.487 1891.45 987.489Z"/><path fill="#0065FF" d="M1651.36 705.012L1682.78 705.043L1682.7 738.184L1651.36 738.176L1651.36 705.012Z"/><path fill="#0065FF" d="M1724.5 704.939L1756.05 704.909L1756.04 738.124L1724.42 738.07C1724.4 727.118 1724.35 715.882 1724.5 704.939Z"/><path fill="#0065FF" d="M1687.81 705.001L1719.2 705.055L1719.18 738.127L1687.8 738.036L1687.81 705.001Z"/><path fill="#0065FF" d="M1606.7 987.113L1636.97 987.175L1636.75 1021.34C1627.54 1021.83 1616.23 1021.42 1606.71 1021.51L1606.7 987.113Z"/><path fill="#0065FF" d="M1724.72 988.314L1756.05 988.282L1756.07 1021.31L1724.6 1021.21C1724.59 1010.43 1724.45 999.05 1724.72 988.314Z"/><path fill="#0065FF" d="M1725.78 665.474L1756.1 665.511C1756.07 671.498 1756.42 694.523 1755.64 698.98L1724.77 698.866C1724.79 693.403 1724.19 668.348 1725.78 665.474Z"/><path fill="#0065FF" d="M1652.26 865.724C1662.34 865.471 1672.88 865.699 1683.03 865.654L1682.99 899.263C1672.81 899.47 1662.3 899.285 1652.07 899.322L1652.26 865.724Z"/><path fill="#0065FF" d="M1891.29 1027.28L1922.81 1027.22C1922.84 1038.17 1922.81 1049.12 1922.72 1060.08L1891.19 1059.98L1891.29 1027.28Z"/><path fill="#0065FF" d="M1686.96 1027.88C1697.56 1027.7 1708.51 1027.84 1719.14 1027.81L1719.09 1060.22C1708.48 1060.34 1697.68 1060.06 1686.99 1060.11L1686.96 1027.88Z"/><path fill="#0065FF" d="M1688 665.389L1719.05 665.437C1719.02 676.312 1719.31 688.068 1719.01 698.836L1687.84 698.664C1687.89 688.266 1687.5 675.553 1688 665.389Z"/><path fill="#0065FF" d="M1652.57 825.625L1682.79 825.602L1682.82 859.373C1672.81 859.489 1662.66 859.394 1652.64 859.389L1652.57 825.625Z"/><path fill="#0065FF" d="M1968.67 1027.67L2000.33 1027.61C2000.29 1038.37 2000.39 1049.21 2000.25 1059.96L1968.7 1060.06L1968.67 1027.67Z"/><path fill="#0065FF" d="M1724.64 1027.97L1756.12 1027.97L1756.03 1060.17C1745.66 1060.33 1734.91 1060.28 1724.54 1060.27L1724.64 1027.97Z"/><path fill="#0065FF" d="M1505.15 947.889L1535.65 947.769C1535.77 957.816 1536.11 970.596 1535.65 980.455C1525.44 980.56 1515.23 980.586 1505.02 980.534L1505.15 947.889Z"/><path fill="#0065FF" d="M1534.18 987.256C1544.03 987.217 1553.89 987.235 1563.74 987.309L1563.78 1020.97L1534.11 1020.91C1534.12 1009.9 1533.91 998.21 1534.18 987.256Z"/><path fill="#0065FF" d="M1688.16 909.375L1719.1 909.477L1719.13 941.032L1687.97 941.015C1688.01 930.944 1687.72 919.257 1688.16 909.375Z"/><path fill="#0065FF" d="M2206.72 987.662C2216.44 987.625 2226.16 987.64 2235.88 987.707L2235.95 1021.23C2226.46 1021.42 2216.59 1021.27 2207.06 1021.26C2206.82 1010.06 2206.7 998.863 2206.72 987.662Z"/><path fill="#0065FF" d="M1855 820.361L1880.95 820.343C1880.96 831.802 1881.37 845.397 1880.96 856.662L1854.89 856.643C1854.89 845.285 1854.53 831.506 1855 820.361Z"/><path fill="#0065FF" d="M1475.32 912.077L1507.15 912.096C1507.22 921.765 1507.23 931.434 1507.19 941.103C1496.57 941.165 1485.95 941.162 1475.32 941.095C1475.24 931.423 1475.24 921.75 1475.32 912.077Z"/><path fill="#0065FF" d="M1490.17 998.901L1520.77 998.904C1520.88 1008.87 1520.85 1018.84 1520.69 1028.81C1510.55 1028.75 1500.16 1028.9 1490.05 1028.65L1490.17 998.901Z"/><path fill="#0065FF" d="M1615.84 786.123C1626.14 785.99 1636.44 785.918 1646.75 785.907L1646.67 815.257L1615.7 815.324C1615.72 805.717 1615.55 795.686 1615.84 786.123Z"/><path fill="#0065FF" d="M1854.57 905.734L1879.96 905.737C1879.93 917.269 1879.97 928.801 1880.08 940.333L1854.58 940.324L1854.57 905.734Z"/><path fill="#0065FF" d="M1490.06 758.364L1520.39 758.139C1520.39 767.655 1520.51 777.483 1520.27 786.962C1510.16 786.854 1500.05 786.809 1489.93 786.829C1489.96 777.959 1489.57 766.988 1490.06 758.364Z"/><path fill="#0065FF" d="M1975.06 821.024L1999.21 820.967C1999.28 832.699 1999.28 844.432 1999.21 856.164C1991.13 856.104 1983.05 856.093 1974.98 856.131C1974.95 844.577 1974.87 832.546 1975.06 821.024Z"/><path fill="#0065FF" d="M1725.07 909.734C1733.68 909.578 1742.58 909.696 1751.21 909.732L1751.21 940.868L1725.03 940.841L1725.07 909.734Z"/><path fill="#0065FF" d="M2006.03 953.763C2015.22 953.631 2024.58 953.709 2033.79 953.706C2033.81 963.336 2033.76 972.966 2033.64 982.596C2024.44 982.66 2015.24 982.675 2006.03 982.64L2006.03 953.763Z"/><path fill="#0065FF" d="M1606.89 1027.95L1629.54 1027.95L1629.46 1062.8C1622.88 1063.25 1613.55 1063.01 1606.83 1063.02L1606.89 1027.95Z"/><path fill="#0065FF" d="M2210.35 1029.48L2233.44 1029.58C2233.4 1035.34 2233.99 1059.18 2232.74 1062.7L2209.35 1062.66C2209.35 1057.77 2208.34 1032.33 2210.35 1029.48Z"/><path fill="#0065FF" d="M1392.92 817.096L1420.33 817.06C1420.13 826.24 1420.46 836.678 1420 845.627L1392.88 845.601C1392.8 836.099 1392.82 826.597 1392.92 817.096Z"/><path fill="#0065FF" d="M2317.05 872.344L2345.32 872.353C2345.38 881.331 2345.36 890.31 2345.24 899.288C2335.8 899.349 2326.36 899.353 2316.92 899.3C2316.91 890.774 2316.67 880.727 2317.05 872.344Z"/><path fill="#0065FF" d="M2184.29 786.5C2188.36 786.483 2192.42 786.492 2196.48 786.527C2196.47 791.849 2197.07 812.885 2195.75 818.67C2195.48 819.837 2188.84 819.472 2187.16 819.47C2182.76 819.427 2178.35 819.422 2173.95 819.455C2173.96 815.193 2173.56 792.137 2174.55 787.208C2174.75 786.163 2182.01 786.506 2184.29 786.5Z"/><path fill="#0065FF" d="M1860.18 1029.18L1884 1029.19L1884 1060.04L1860.18 1059.97C1860.08 1049.9 1859.94 1039.21 1860.18 1029.18Z"/><path fill="#0065FF" d="M1442.42 784.029L1468 784.069L1468.01 811.223L1442.36 811.176L1442.42 784.029Z"/><path fill="#0065FF" d="M1440.49 861.5L1453.87 861.437C1453.85 865.266 1454.56 884.59 1452.96 888.425C1452.67 889.117 1446.62 888.898 1445.25 888.898L1428.56 888.891L1428.77 861.741C1432.67 861.497 1436.58 861.533 1440.49 861.5Z"/><path fill="#0065FF" d="M2317.3 788.309L2338.78 788.217C2338.75 798.305 2338.83 808.616 2338.66 818.681L2317.48 818.694L2317.3 788.309Z"/><path fill="#0065FF" d="M1656.91 747.738L1680.33 747.584L1680.45 773.737L1656.89 773.719L1656.91 747.738Z"/><path fill="#0065FF" d="M2284.41 873.955L2308.7 873.948L2308.67 899.314L2284.54 899.281C2284.32 890.841 2284.28 882.397 2284.41 873.955Z"/><path fill="#0065FF" d="M1447.5 976.116L1472.12 976.006C1472.05 984.251 1472.06 992.725 1471.89 1000.95L1447.43 1000.85C1447.4 992.604 1447.43 984.36 1447.5 976.116Z"/><path fill="#0065FF" d="M1657.14 911.984L1680.26 911.954C1680.25 919.97 1680.45 928.771 1680.18 936.686L1657.03 936.717L1657.14 911.984Z"/><path fill="#0065FF" d="M1349.32 875.375L1372.94 875.402L1372.88 898.48L1349.24 898.428C1349.23 890.84 1349.14 882.942 1349.32 875.375Z"/><path fill="#0065FF" d="M2208.06 875.06C2215.26 874.983 2222.46 874.953 2229.66 874.968C2229.75 883.219 2229.74 891.471 2229.65 899.722L2207.96 899.714C2207.96 891.496 2207.99 883.278 2208.06 875.06Z"/><path fill="#0065FF" d="M1393.48 930.927C1401.06 930.981 1408.63 930.997 1416.21 930.975C1416.18 938.285 1416.37 946.491 1416.07 953.7C1408.58 953.59 1401.1 953.541 1393.61 953.555C1393.61 946.012 1393.56 938.469 1393.48 930.927Z"/><path fill="#0065FF" d="M2247.82 914.686L2268.48 914.666L2268.4 938.452C2261.52 938.445 2254.64 938.501 2247.77 938.619L2247.82 914.686Z"/><path fill="#0065FF" d="M1628.23 823.461C1634.98 823.423 1641.72 823.424 1648.47 823.463C1648.49 830.603 1648.47 837.742 1648.39 844.88L1628.2 844.857C1628.14 838.026 1627.96 830.247 1628.23 823.461Z"/><path fill="#0065FF" d="M1980.17 957.607C1986.38 957.538 1992.59 957.504 1998.8 957.506L1998.72 977.936C1992.73 978.161 1986.26 978.038 1980.22 978.044L1980.17 957.607Z"/></svg>