<?xml version="1.0" encoding="utf-8" ?><svg xmlns="http://www.w3.org/2000/svg" xmlns:xlink="http://www.w3.org/1999/xlink" width="2048" height="2048" viewBox="0 0 2048 2048"><path fill="white" d="M0 0L2048 0L2048 2048L0 2048L0 0Z"/><path fill="#0065FF" d="M1269.85 1434.42C1236.98 1466.97 1205.3 1501.96 1172.17 1534.46C1132.19 1574.42 1077.79 1596.59 1021.26 1595.95C979.321 1595.36 938.442 1582.7 903.509 1559.48C886.316 1548.03 862.304 1523.04 847.532 1508.23L769.209 1429.28L602.48 1263.16C573.186 1234.14 543.476 1205.41 514.336 1176.28C465.428 1126.08 444.992 1055.02 456.96 986.396C469.371 915.243 510.366 876.901 558.427 829.04L635.892 751.868C713.573 674.798 790.819 597.043 868.905 520.396C911.66 478.428 971.112 451.522 1031.76 453.028C1069.65 454.265 1106.48 465.818 1138.29 486.44C1163.54 502.669 1178.81 519.716 1199.56 540.776L1253.64 595.942C1308.29 650.83 1362.61 706.04 1416.61 761.57L1383.99 761.319L1384.04 892.089C1426.65 892.781 1471.07 892.223 1513.86 892.291C1514.08 848.713 1514.05 805.133 1513.75 761.555C1556.73 761.021 1600.5 761.341 1643.55 761.295C1643.82 805.404 1643.73 849.513 1643.28 893.62L1514.33 893.68C1514.19 900.88 1514.31 905.264 1516.2 912.205C1524.83 943.983 1525.54 977.42 1519.94 1009.8C1518.3 1019.27 1515.44 1028.74 1514.04 1038.47L1513.88 1039.7C1536.27 1038.48 1564.25 1039.4 1587.04 1039.17C1601.89 1039.02 1632.62 1038.45 1646.16 1039.92C1648.44 1043.05 1647.2 1159.4 1647.2 1173L1515.15 1172.91C1514.39 1187.2 1515.76 1204.56 1514.77 1217.73C1515.2 1246.3 1514.95 1275.57 1515.03 1304.2L1383.96 1304.2L1384.01 1434.39C1346.2 1434.01 1307.71 1434.4 1269.85 1434.42Z"/><path fill="#0065FF" d="M1513.88 1039.7C1536.27 1038.48 1564.25 1039.4 1587.04 1039.17C1601.89 1039.02 1632.62 1038.45 1646.16 1039.92C1648.44 1043.05 1647.2 1159.4 1647.2 1173L1515.15 1172.91C1514.39 1187.2 1515.76 1204.56 1514.77 1217.73C1511.5 1213.01 1515.64 1180.5 1512.88 1172.22C1470.36 1171.63 1426.68 1171.99 1384.07 1171.92L1383.89 1041.04C1388.84 1040.1 1411.55 1040.46 1417.88 1040.47L1488.54 1040.64C1493.95 1040.65 1509.46 1041.21 1513.88 1039.7Z"/><path fill="white" d="M1383.89 1041.04C1395.59 1042.23 1417.25 1041.66 1429.77 1041.65L1514.11 1041.73C1514.15 1052.83 1515.33 1168.74 1512.88 1172.22C1470.36 1171.63 1426.68 1171.99 1384.07 1171.92L1383.89 1041.04Z"/><path fill="#397FE6" d="M1513.88 1039.7C1536.27 1038.48 1564.25 1039.4 1587.04 1039.17C1601.89 1039.02 1632.62 1038.45 1646.16 1039.92C1632.43 1041.02 1611.66 1040.39 1597.5 1040.37L1515.35 1040.38L1515.5 1128.08C1515.51 1138.6 1516.1 1163.2 1515.15 1172.91C1514.39 1187.2 1515.76 1204.56 1514.77 1217.73C1511.5 1213.01 1515.64 1180.5 1512.88 1172.22C1515.33 1168.74 1514.15 1052.83 1514.11 1041.73L1429.77 1041.65C1417.25 1041.66 1395.59 1042.23 1383.89 1041.04C1388.84 1040.1 1411.55 1040.46 1417.88 1040.47L1488.54 1040.64C1493.95 1040.65 1509.46 1041.21 1513.88 1039.7Z"/><path fill="white" d="M1007.9 804.863C1129.17 795.415 1235.09 886.159 1244.36 1007.44C1253.64 1128.72 1162.74 1234.51 1041.45 1243.61C920.402 1252.69 814.869 1162.02 805.615 1040.99C796.36 919.953 886.879 814.291 1007.9 804.863Z"/><path fill="white" d="M1253.06 1172.53C1296.5 1172.79 1339.95 1172.81 1383.4 1172.59L1383.5 1303.75C1371.35 1304.5 1351.94 1304.03 1339.5 1304.05L1253.07 1304.01L1253.06 1172.53Z"/><path fill="#0065FF" d="M1721.06 644.902L1816.61 644.839L1816.7 743.212C1784.87 742.788 1752.82 743.205 1720.93 742.983L1721.06 644.902Z"/><path fill="#0065FF" d="M1689.47 897.723L1783.82 897.597C1783.85 929.925 1784.31 962.806 1783.88 995.079L1689.53 994.992C1689.27 962.569 1689.25 930.145 1689.47 897.723Z"/></svg>