<?xml version="1.0" encoding="utf-8" ?><svg xmlns="http://www.w3.org/2000/svg" xmlns:xlink="http://www.w3.org/1999/xlink" width="2048" height="2048" viewBox="0 0 2048 2048"><path fill="white" d="M0 0L2048 0L2048 2048L0 2048L0 0Z"/><path fill="#0065FF" d="M945.772 485.325C955.604 484.291 974.872 484.851 985.572 484.872L1057.43 484.965L1144.08 484.761C1170.64 484.746 1195.88 481.459 1219.37 495.922C1234.54 505.463 1245.32 520.61 1249.37 538.064C1252.17 549.864 1252.35 665.137 1250.45 678.401C1249.13 687.878 1245.82 696.968 1240.73 705.07C1229 723.601 1212.64 731.438 1191.93 735.947C1175.96 736.652 1156.31 736.112 1140.07 736.113L1043.37 736.131L981.633 736.143C957.569 736.186 935.275 738.811 914.392 724.485C878.241 700.477 885.892 658.257 885.928 620.522C885.947 599.545 883.359 561.221 886.839 541.009C888.514 530.826 892.512 521.166 898.522 512.778C910.532 496.111 926.028 488.582 945.772 485.325Z"/><path fill="#0065FF" d="M1757.69 481.313C1759.67 483.512 1760.91 483.222 1764.1 483.216C1796.1 483.159 1828.55 483.079 1860.53 483.369C1871.17 483.466 1912.19 481.563 1919.58 483.775L1919.9 484.954C1941.42 489.714 1958.08 497.931 1970.25 517.292C1975.08 524.968 1978.24 533.579 1979.52 542.562C1981.92 558.991 1981.9 669.712 1978.5 684.019C1974.26 701.881 1963.27 716.672 1947.57 726.163C1939.11 731.279 1930.49 734.31 1920.62 735.328C1906.6 736.775 1892.1 736.144 1878.01 736.152L1810.57 736.166L1729.25 736.217C1690.23 736.273 1651.69 741.544 1628.67 702.05C1615.77 679.914 1618.72 643.618 1619.06 618.17C1619.37 595.171 1616.81 557.152 1621.57 535.69C1620.96 535.341 1618.87 535.175 1618.03 535.059L1618.81 531.043C1638.73 482.497 1673.6 478.907 1720.38 480.903C1732.61 481.425 1745.27 480.443 1757.69 481.313Z"/><path fill="#F4FBFE" d="M1757.69 481.313C1759.67 483.512 1760.91 483.222 1764.1 483.216C1796.1 483.159 1828.55 483.079 1860.53 483.369C1871.17 483.466 1912.19 481.563 1919.58 483.775L1919.9 484.954L1761.03 484.828C1737.69 484.781 1714.29 484.16 1690.96 484.935C1654.38 486.149 1634 502.42 1621.57 535.69C1620.96 535.341 1618.87 535.175 1618.03 535.059L1618.81 531.043C1638.73 482.497 1673.6 478.907 1720.38 480.903C1732.61 481.425 1745.27 480.443 1757.69 481.313Z"/><path fill="#0065FF" d="M947.889 740.348C956.59 739.351 977.545 739.903 986.982 739.918L1062.07 739.964L1145.51 739.905C1172.66 739.89 1198.87 736.19 1222.93 751.957C1260.2 776.384 1250.35 822.985 1250.94 861.838C1251.25 881.75 1253.07 920.822 1250.03 939.347C1248.49 948.705 1244.79 957.577 1239.24 965.265C1227.12 982.211 1212.49 988.65 1192.63 991.833C1140.69 992.757 1085.9 991.91 1033.7 991.904L981.865 991.902C959.344 991.926 936.318 993.803 916.971 980.394C904.177 971.526 891.961 955.907 889.943 940.053C887.205 918.546 889.596 896.39 888.873 874.738C889.334 855.008 886.876 811.875 889.803 794.303C891.429 784.434 895.325 775.077 901.182 766.97C912.917 750.756 928.611 743.287 947.889 740.348Z"/><path fill="#0065FF" d="M1459.91 480.825L1513.11 480.85C1544.41 480.784 1573.18 477.5 1597.49 501.697C1605.34 509.562 1611.38 519.056 1615.16 529.51C1616.16 532.545 1615.88 533.144 1618.03 535.059C1614.33 539.519 1615.48 538.012 1614.84 544.482C1616.05 564.19 1616.21 587.861 1615.35 607.657C1613.74 644.758 1624.01 685.883 1596.71 715.208C1584.73 728.16 1568.03 735.719 1550.4 736.166C1501.65 737.336 1447.64 736.259 1398.48 736.27L1345.81 736.252C1318.36 736.18 1296.33 737.975 1275.3 717.303C1261.23 703.464 1255.02 687.119 1254.87 667.566C1254.61 633.919 1254.74 600.458 1254.66 566.827C1254.65 556.184 1254.43 545.876 1257.03 535.462C1259.85 524.094 1265.68 513.692 1273.89 505.341C1294.39 484.44 1317.06 484.724 1343.84 484.661C1353.86 479.388 1453.11 487.807 1459.91 480.825Z"/><path fill="#F4FBFE" d="M1459.91 480.825L1513.11 480.85C1544.41 480.784 1573.18 477.5 1597.49 501.697C1605.34 509.562 1611.38 519.056 1615.16 529.51C1616.16 532.545 1615.88 533.144 1618.03 535.059C1614.33 539.519 1615.48 538.012 1614.84 544.482C1610.23 517.522 1589.45 491.573 1562.49 487.043C1538.3 482.978 1503.19 484.844 1478.1 484.912L1343.84 484.661C1353.86 479.388 1453.11 487.807 1459.91 480.825Z"/><path fill="#0065FF" d="M1680.86 740.322C1690.37 739.312 1710.48 739.889 1720.84 739.912L1796.05 740.046L1876.13 739.915C1887.55 739.9 1909.91 739.317 1920.55 740.754C1931.6 742.275 1942.12 746.404 1951.25 752.799C1966.26 763.185 1976.4 779.216 1979.36 797.221C1981.48 809.712 1980.57 848.333 1980.48 862.645C1980.36 879.767 1981.98 920.428 1979.29 935.651C1977.5 946.244 1973.3 956.286 1967.02 965.001C1954.81 981.691 1939 988.646 1919.24 991.853C1905.56 992.542 1886.5 991.975 1872.29 991.979L1780.39 992.046L1718.01 992.081C1693.85 992.087 1669.44 994.407 1648.53 980.015C1633.53 969.574 1623.36 953.54 1620.32 935.522C1618.14 922.958 1619 883.939 1619.13 869.617C1619.27 853.396 1617.76 811.134 1620.31 796.854C1622.12 786.408 1626.27 776.508 1632.46 767.898C1644.8 750.654 1660.58 743.622 1680.86 740.322Z"/><path fill="#0065FF" d="M1316.01 740.33C1327.07 739.347 1348.43 739.937 1360.15 739.932L1443.49 739.926L1512.11 739.954C1538.93 739.971 1564.57 736.879 1587.2 754.061C1602.22 765.553 1612.04 782.573 1614.46 801.337C1616.11 814.112 1615.15 851.966 1615.11 866.212C1615.06 882.03 1616.52 925.556 1613.95 939.178C1612.03 949.393 1607.66 958.989 1601.21 967.145C1588.72 983.039 1573.82 989.249 1554.24 991.654L1398.01 991.709C1370.13 991.771 1342.04 992.645 1314.18 990.772C1285.63 988.854 1258.54 961.393 1255.8 933.168C1254.07 915.305 1254.31 889.408 1254.92 871.187C1255.64 849.653 1252.51 814.783 1256.53 794.315C1258.54 784.236 1262.79 774.739 1268.97 766.525C1280.91 750.558 1296.71 743.202 1316.01 740.33Z"/><path fill="#0065FF" d="M1684.4 79.4823C1705.17 79.2012 1723.8 79.7685 1740.03 95.0066C1752.43 106.477 1758.06 123.255 1757.99 139.932C1757.89 165.284 1757.65 190.856 1757.91 216.239C1758.02 227.097 1758.5 239.102 1755.84 249.651C1753.38 259.496 1748.31 268.494 1741.16 275.691C1718.81 297.798 1673.98 291.957 1644.19 291.949L1517.75 291.893C1496.83 291.981 1477.39 291.395 1461.11 275.549C1436.49 251.581 1445.16 210.193 1444 178.624C1442.99 151.137 1440.09 116.366 1460.88 95.8212C1468.33 88.4735 1477.74 83.4503 1487.99 81.3643C1501.82 78.531 1541.22 79.6462 1557.32 79.6551L1684.4 79.4823Z"/><path fill="#0065FF" d="M1185.66 88.3586C1192.99 87.6447 1208.66 88.0804 1216.85 88.0715L1278.25 88.0397L1347.22 88.0329C1378.21 88.0316 1415.78 83.6756 1432.95 115.434C1445.33 138.342 1439 180.996 1440.25 207.566C1442.3 251.342 1441.3 288.397 1389.43 297.806C1350.02 299.436 1302.8 297.896 1262.71 297.965L1212.54 298.123C1176.43 298.257 1143.81 297.411 1134.18 251.299C1132.29 242.249 1132.97 229.431 1133.23 219.947C1133.99 191.391 1131.88 162.441 1134.28 134.025C1137.4 106.717 1159.67 91.7783 1185.66 88.3586Z"/><path fill="#0065FF" d="M1459.91 480.825C1447.93 466.998 1445.63 456.239 1445.84 438.33C1446.2 408.994 1445.75 379.564 1446.09 350.234C1446.3 335.279 1453.94 320.389 1465.24 310.757C1473.64 303.644 1483.79 298.912 1494.64 297.053C1503.53 295.594 1521.77 296.019 1531.43 296.018L1589.28 296.039L1661.01 296.024C1673.58 296.02 1690.89 295.494 1702.9 296.584C1719.14 297.898 1734.17 305.672 1744.63 318.163C1762.4 339.146 1757.57 377.165 1757.82 403.247C1758.07 428.268 1758.37 456.272 1757.69 481.313C1745.27 480.443 1732.61 481.425 1720.38 480.903C1673.6 478.907 1638.73 482.497 1618.81 531.043L1618.03 535.059C1615.88 533.144 1616.16 532.545 1615.16 529.51C1611.38 519.056 1605.34 509.562 1597.49 501.697C1573.18 477.5 1544.41 480.784 1513.11 480.85L1459.91 480.825Z"/><path fill="#0065FF" d="M1185.5 302.309C1252.09 298.951 1324.96 303.42 1392.03 302.988C1398.88 302.944 1408.15 307.199 1414.25 310.887C1444.54 329.196 1438.99 360.291 1439.3 390.091C1438.34 418.325 1445.4 456.578 1429.67 481.115L1339.11 480.975C1294.87 481.284 1268.79 489.917 1252.77 534.581C1229.02 474.434 1191.03 480.882 1135.86 481.079L1135.73 392.479C1135.7 381.68 1135.04 355.139 1136.62 345.451C1137.93 337.701 1141.01 330.358 1145.62 323.995C1155.78 309.948 1169.25 304.74 1185.5 302.309Z"/><path fill="#0065FF" d="M1156.2 1070.59C1135.66 1071.43 1112.6 1070.92 1091.88 1070.9L986.742 1070.89L919.041 1070.9C894.645 1070.87 871.187 1073.71 850.441 1058.14C825.389 1039.35 827.664 1013.78 827.959 985.848C828.272 956.223 827.149 926.544 828.62 896.993C830.578 867.854 854.408 855.055 880.489 851.576C881.273 881.663 878.683 916.331 881.728 945.626C884.548 972.764 914.501 999.221 941.431 1000.4C958.767 1001.15 977.293 1001.18 995.444 1001.17L1092.38 1001.15L1164.44 1001.25C1174.85 1001.27 1196.1 1002.02 1205.44 1000.16C1205.45 1018.36 1206.31 1025.17 1198.24 1042.09C1199.13 1043.94 1199.25 1044.28 1200.36 1045.89C1185.93 1065.92 1180.14 1066.26 1158.66 1074.1C1157.69 1071.58 1158.71 1071.68 1156.2 1070.59Z"/><path fill="#F4FBFE" d="M1198.24 1042.09C1199.13 1043.94 1199.25 1044.28 1200.36 1045.89C1185.93 1065.92 1180.14 1066.26 1158.66 1074.1C1157.69 1071.58 1158.71 1071.68 1156.2 1070.59C1157.99 1069.88 1159.73 1069.85 1161.62 1069.43C1179.41 1065.52 1188.3 1055.91 1198.24 1042.09Z"/><path fill="#0065FF" d="M743.083 1071.76C753.471 1068.3 757.064 1067.71 768.039 1067.26C767.826 1086.01 767.145 1100.54 781.177 1115.9C792.785 1128.61 807.378 1131.01 823.949 1131.17L1101.59 1131.08C1101.99 1159.43 1096.54 1179.75 1066.02 1188.08C1069.52 1190.02 1069.65 1189.86 1073.47 1190.41C1062.83 1192.36 1058.81 1192.16 1047.98 1192.1C1047.98 1199.01 1048.37 1205.09 1047.3 1211.89C1046.17 1206.39 1046.56 1196.49 1046.59 1190.49C1039.87 1190.1 1030.06 1190.49 1023.13 1190.55L1022.49 1191.89C1023.21 1193.69 1023 1192.71 1022.15 1195.16C1020.86 1195.49 1013.72 1195.83 1013.63 1196.51C1012.67 1203.98 1013.21 1213.19 1013.22 1220.85C1003.48 1220.88 993.738 1220.83 983.999 1220.68C983.041 1213.59 983.436 1197.73 983.832 1190.43L859.749 1190.47C850.858 1190.45 813.838 1189.4 807.752 1191.11L807.708 1215.06C800.512 1215.07 792.364 1214.7 785.321 1215.58C786.779 1220.43 786.173 1234.51 786.222 1240.48C777.761 1240.46 769.3 1240.49 760.84 1240.56L760.951 1215.88C767.456 1215.85 773.961 1215.87 780.466 1215.95C778.803 1211.62 779.218 1196.07 779.115 1190.49C774.337 1190.52 770.485 1189.35 766.631 1191.54C766.376 1193.51 766.257 1193.32 765.094 1194.92C756.162 1194.83 747.124 1194.96 738.217 1194.78C735.921 1184.29 740.606 1179.63 736.359 1171.8C735.594 1169.32 731.134 1163.28 730.687 1161.03C727.079 1142.92 725.659 1100.25 731.695 1084C729.041 1081.61 728.562 1083.24 728.131 1079.74C730.867 1079.14 737.24 1071.5 739.355 1068.95C740.729 1070.76 741.126 1070.8 743.083 1071.76Z"/><path fill="#F4FBFE" d="M736.359 1171.8C742.93 1178.17 751.691 1185.83 760.936 1187.35C775.276 1189.7 791.401 1188.77 805.987 1188.73C887.623 1188.47 969.276 1188.96 1050.91 1188.64C1055.9 1188.62 1061.05 1188.49 1066.02 1188.08C1069.52 1190.02 1069.65 1189.86 1073.47 1190.41C1062.83 1192.36 1058.81 1192.16 1047.98 1192.1C1047.98 1199.01 1048.37 1205.09 1047.3 1211.89C1046.17 1206.39 1046.56 1196.49 1046.59 1190.49C1039.87 1190.1 1030.06 1190.49 1023.13 1190.55L1022.49 1191.89C1023.21 1193.69 1023 1192.71 1022.15 1195.16C1020.86 1195.49 1013.72 1195.83 1013.63 1196.51C1012.67 1203.98 1013.21 1213.19 1013.22 1220.85C1003.48 1220.88 993.738 1220.83 983.999 1220.68C983.041 1213.59 983.436 1197.73 983.832 1190.43L859.749 1190.47C850.858 1190.45 813.838 1189.4 807.752 1191.11L807.708 1215.06C800.512 1215.07 792.364 1214.7 785.321 1215.58C786.779 1220.43 786.173 1234.51 786.222 1240.48C777.761 1240.46 769.3 1240.49 760.84 1240.56L760.951 1215.88C767.456 1215.85 773.961 1215.87 780.466 1215.95C778.803 1211.62 779.218 1196.07 779.115 1190.49C774.337 1190.52 770.485 1189.35 766.631 1191.54C766.376 1193.51 766.257 1193.32 765.094 1194.92C756.162 1194.83 747.124 1194.96 738.217 1194.78C735.921 1184.29 740.606 1179.63 736.359 1171.8Z"/><path fill="#397FE6" d="M781.21 1191.68C787.98 1191.67 801.674 1192.03 807.752 1191.11L807.708 1215.06C800.512 1215.07 792.364 1214.7 785.321 1215.58C786.779 1220.43 786.173 1234.51 786.222 1240.48C777.761 1240.46 769.3 1240.49 760.84 1240.56L760.951 1215.88C767.456 1215.85 773.961 1215.87 780.466 1215.95C781.573 1212.36 781.258 1210.22 781.399 1206.38C781.017 1202.46 781.221 1195.8 781.21 1191.68Z"/><path fill="#397FE6" d="M984.653 1192.18C996.712 1192.17 1009.36 1191.7 1021.29 1192.44C1021.59 1192.45 1021.84 1193.71 1021.89 1193.94L1022.15 1195.16C1020.86 1195.49 1013.72 1195.83 1013.63 1196.51C1012.67 1203.98 1013.21 1213.19 1013.22 1220.85C1003.48 1220.88 993.738 1220.83 983.999 1220.68C985.023 1213.16 984.638 1200.23 984.653 1192.18Z"/><path fill="#397FE6" d="M738.217 1194.78C739.196 1189.14 738.956 1185.95 738.979 1180.27C745.681 1185.09 764.183 1191.74 765.094 1194.92C756.162 1194.83 747.124 1194.96 738.217 1194.78Z"/><path fill="#F4FBFE" d="M739.355 1068.95C740.729 1070.76 741.126 1070.8 743.083 1071.76C736.165 1077.26 736.85 1076.85 731.695 1084C729.041 1081.61 728.562 1083.24 728.131 1079.74C730.867 1079.14 737.24 1071.5 739.355 1068.95Z"/><path fill="#0065FF" d="M816.276 937.357C819.067 937.213 819.854 936.877 822.319 938.13C825.266 944.233 823.882 956.909 823.806 964.188L823.601 999.298C823.514 1023.19 821.725 1039.4 839.974 1058.16C860.551 1079.32 884.616 1076.38 911.897 1076.4L964.736 1076.42L1156.11 1076.31C1153.82 1105.04 1142.82 1120.45 1113.98 1127.2C1097.64 1128.06 1073.6 1127.25 1056.45 1127.24L945.247 1127.26L861.081 1127.38C839.613 1127.43 808.401 1130.91 790.548 1118.89C764.639 1101.45 773.217 1066.82 771.895 1040.33C771.478 1031.98 772.346 1022.56 772.04 1014.11C773.292 970.716 761.891 943.186 816.276 937.357Z"/><path fill="#0065FF" d="M1250.51 966.698C1283.89 1008.42 1306.32 1001.24 1356.38 1001.26L1440.29 1001.23L1518.79 1001.18C1545.36 1001.15 1559.39 1003.31 1584.93 994.742C1585.35 1028.28 1582.63 1053.61 1547.07 1068.15C1539.01 1070.63 1530.92 1070.97 1522.53 1070.98C1462.41 1071 1402.24 1071.02 1342.12 1071.03L1288.26 1071.03C1264.49 1071.02 1242.62 1073.29 1224.49 1054.73C1207.86 1037.7 1208.68 1021.06 1208.73 999.46C1228.34 991.871 1239.06 983.948 1250.51 966.698Z"/><path fill="#0065FF" d="M1200.36 1045.89C1216.26 1064.22 1231.16 1075.02 1256.17 1075.91C1284.12 1076.91 1313.35 1076.43 1341.39 1076.42L1500.61 1076.25C1500.83 1115.75 1482.73 1134.94 1443.53 1134.21C1425.03 1133.87 1405.34 1134.12 1386.72 1134.08L1222.23 1134.11C1188.97 1133.99 1163.53 1123.18 1159.66 1086.03C1159.27 1082.27 1159.78 1077.62 1158.66 1074.1C1180.14 1066.26 1185.93 1065.92 1200.36 1045.89Z"/><path fill="#397FE6" d="M155.603 1820.29C196.062 1815.97 232.382 1845.22 236.77 1885.67C241.159 1926.13 211.958 1962.49 171.512 1966.94C130.979 1971.4 94.5188 1942.12 90.1208 1901.58C85.7229 1861.04 115.056 1824.63 155.603 1820.29Z"/><path fill="white" d="M155.884 1827.26C192.605 1823.12 225.709 1849.59 229.759 1886.32C233.809 1923.05 207.265 1956.08 170.524 1960.04C133.913 1963.99 101.015 1937.56 96.9791 1900.96C92.9434 1864.35 119.293 1831.39 155.884 1827.26Z"/><path fill="#0065FF" d="M1106.72 1131.33C1127.29 1129.97 1136.48 1124.45 1149.91 1109.48C1163.81 1128.44 1180.44 1136.76 1203.94 1137.3C1224.08 1137.76 1244.17 1137.61 1264.3 1137.61L1405.01 1137.77C1405.91 1197.81 1363.81 1190.25 1320.59 1190.51C1289.96 1190.69 1258.25 1189.69 1227.72 1190.38C1224.77 1193.09 1176.82 1190.65 1168.96 1191.45C1166.84 1191.66 1167.32 1190.89 1166.6 1193.73C1166.86 1198.74 1166.87 1203.01 1166.87 1208.02L1141.17 1208C1139.76 1200.4 1140.01 1196.13 1142.12 1189.09L1131.02 1185.27C1126.3 1181.65 1122.41 1178.81 1117.63 1174.96C1106.61 1159.1 1106.68 1150.01 1106.72 1131.33Z"/><path fill="#397FE6" d="M1141.81 1192.62C1148.86 1193.82 1159.49 1194.94 1166.6 1193.73C1166.86 1198.74 1166.87 1203.01 1166.87 1208.02L1141.17 1208C1142.06 1201.97 1141.82 1198.69 1141.81 1192.62Z"/><path fill="#F4FBFE" d="M1142.12 1189.09C1152.84 1191.03 1164.16 1189.91 1175.09 1190.14C1192.43 1190.52 1210.46 1189.96 1227.72 1190.38C1224.77 1193.09 1176.82 1190.65 1168.96 1191.45C1166.84 1191.66 1167.32 1190.89 1166.6 1193.73C1159.49 1194.94 1148.86 1193.82 1141.81 1192.62C1141.82 1198.69 1142.06 1201.97 1141.17 1208C1139.76 1200.4 1140.01 1196.13 1142.12 1189.09Z"/><path fill="#0065FF" d="M877.795 603.368L880.349 603.504C884.04 607.655 881.334 667.367 882.498 678.275C883.374 686.381 885.718 694.26 889.416 701.526C899.682 721.591 915.261 732.05 936.157 738.702C921.572 742.49 911.128 748.02 900.227 758.473C875.535 782.151 880.289 815.058 880.407 847.18L879.971 848.338C871.964 854.222 853.261 842.111 846.249 837.247C823.091 821.184 827.077 803.841 827.09 777.796L827.128 727.486L827.197 678.969C827.214 668.549 826.843 658.283 828.141 647.91C831.564 620.546 851.695 606.321 877.795 603.368Z"/><path fill="#0065FF" d="M821.07 705.29C822.6 705.373 821.733 705.174 823.529 706.328C824.424 736.78 822.901 767.868 823.446 798.391C823.924 825.104 828.478 838.984 848.108 857.313C819.884 878.534 823.825 900.032 824.105 931.471C817.738 930.642 811.529 929.069 805.27 927.626C798.723 925.891 792.527 923.029 786.962 919.169C780.579 914.693 774.916 908.097 774.482 899.86C771.991 855.354 774.164 810.184 773.472 765.616C772.946 731.69 785.802 710.528 821.07 705.29Z"/><path fill="#0065FF" d="M762.629 817.325C765.179 817.122 766.531 817.201 769.055 817.271C770.912 821.016 769.897 829.166 770.115 833.832C771.977 873.775 762.204 905.953 786.607 940.04C764.094 954.855 767.955 976.228 768.005 1000.03C762.897 999.575 759.088 998.766 754.094 997.782C728.812 989.201 725.556 978.946 725.978 954.051C726.568 919.256 724.733 884.006 726.894 849.263C728.186 828.49 743.81 819.738 762.629 817.325Z"/><path fill="#0065FF" d="M1115.51 348.152C1120.3 347.664 1127.11 347.716 1132.07 347.605L1132.21 481.062L1097.25 480.963L1077.12 480.908L1077.02 422.298C1076.79 386.877 1072.58 358.823 1115.51 348.152Z"/><path fill="#397FE6" d="M1073.47 1190.41C1079.1 1189.16 1076.65 1206.43 1076.68 1211.15L1103.92 1211.21L1103.94 1235.23L1131.82 1235.2C1132.9 1240.85 1132.49 1260.09 1132.44 1267.08C1138.8 1267.18 1153.44 1266.8 1158.87 1267.71C1159.23 1277.41 1158.95 1289.02 1158.93 1298.89L1127.1 1298.89C1125.79 1291.18 1126.45 1275.33 1126.87 1267.23C1121.08 1267.09 1103.7 1267.23 1099.52 1266.43C1099.28 1258.41 1099.36 1250.17 1099.37 1242.12C1090.29 1242.01 1081.21 1241.97 1072.13 1242.01L1072.1 1211.97C1063.83 1211.99 1055.56 1211.96 1047.3 1211.89C1048.37 1205.09 1047.98 1199.01 1047.98 1192.1C1058.81 1192.16 1062.83 1192.36 1073.47 1190.41Z"/><path fill="#397FE6" d="M1158.87 1267.71C1159.23 1277.41 1158.95 1289.02 1158.93 1298.89L1127.1 1298.89C1128.08 1291.25 1127.58 1276.55 1127.59 1268.21C1136.37 1268.25 1150.74 1268.79 1158.87 1267.71Z"/><path fill="#F4FBFE" d="M1131.82 1235.2C1132.9 1240.85 1132.49 1260.09 1132.44 1267.08C1138.8 1267.18 1153.44 1266.8 1158.87 1267.71C1150.74 1268.79 1136.37 1268.25 1127.59 1268.21C1127.58 1276.55 1128.08 1291.25 1127.1 1298.89C1125.79 1291.18 1126.45 1275.33 1126.87 1267.23C1121.08 1267.09 1103.7 1267.23 1099.52 1266.43C1106.76 1265.35 1123.26 1265.82 1131.22 1265.86C1131.24 1257.39 1130.61 1243.02 1131.82 1235.2Z"/><path fill="#397FE6" d="M905.202 1229.01L934.991 1228.96C935.034 1238.93 935.018 1248.9 934.945 1258.87C929.27 1259.86 922.03 1259.47 916.125 1259.49C916.519 1266.48 917.172 1279.81 915.933 1286.55C907.228 1286.68 898.405 1286.64 889.691 1286.65L889.652 1260.59C894.218 1258.18 899.822 1261.44 905.186 1258.86C905.137 1248.91 905.142 1238.96 905.202 1229.01Z"/><path fill="#397FE6" d="M905.186 1258.86C910.896 1257.89 929.081 1258.02 934.945 1258.87C929.27 1259.86 922.03 1259.47 916.125 1259.49C916.519 1266.48 917.172 1279.81 915.933 1286.55C907.228 1286.68 898.405 1286.64 889.691 1286.65L889.652 1260.59C894.218 1258.18 899.822 1261.44 905.186 1258.86Z"/><path fill="#F4FBFE" d="M905.186 1258.86C910.896 1257.89 929.081 1258.02 934.945 1258.87C929.27 1259.86 922.03 1259.47 916.125 1259.49C916.519 1266.48 917.172 1279.81 915.933 1286.55C914.98 1279.79 915.412 1268.55 915.421 1261.42C909.422 1261.37 894.338 1261.8 889.652 1260.59C894.218 1258.18 899.822 1261.44 905.186 1258.86Z"/><path fill="#0065FF" d="M762.229 1005.24C762.39 1005.24 767.21 1004.91 767.253 1005.78C768.108 1022.96 768.207 1042.8 767.591 1060.13C759.568 1057.56 757.154 1056.38 749.696 1052.87L747.87 1052.03C742.591 1049.3 739.377 1047.55 735.369 1042.99L734.188 1041.7L733.95 1039.41C731.352 1016.63 740.311 1008.74 762.229 1005.24Z"/><path fill="#397FE6" d="M998.016 1258.9L1023.82 1258.9L1023.82 1283.12C1017.98 1283.1 1012.13 1283.11 1006.29 1283.16C1006.25 1290.19 1006.41 1297.73 1006.17 1304.68L979.984 1304.64L980.013 1279.48L998.002 1279.54L998.016 1258.9Z"/><path fill="#397FE6" d="M1097.16 1182.08C1095.62 1182.09 1089.9 1182.55 1088.79 1181.38C1088.96 1179.95 1095.47 1174.43 1097.74 1170.39C1101.57 1163.57 1101.86 1160.81 1104.29 1153.71C1105 1161.5 1105.54 1169.3 1105.91 1177.12C1110.35 1176.5 1114.4 1177.49 1117.63 1174.96C1122.41 1178.81 1126.3 1181.65 1131.02 1185.27C1124.95 1187.97 1131.14 1191.73 1127.25 1195.71C1127.09 1200.2 1127.02 1204.7 1127.01 1209.2L1101.91 1209.2C1101.94 1201.18 1101.75 1192.7 1102.22 1184.75C1101.29 1183.08 1100.44 1183.21 1098.59 1182.65L1097.16 1182.08Z"/><path fill="#397FE6" d="M1097.16 1182.08C1095.62 1182.09 1089.9 1182.55 1088.79 1181.38C1088.96 1179.95 1095.47 1174.43 1097.74 1170.39C1101.57 1163.57 1101.86 1160.81 1104.29 1153.71C1105 1161.5 1105.54 1169.3 1105.91 1177.12C1110.35 1176.5 1114.4 1177.49 1117.63 1174.96C1122.41 1178.81 1126.3 1181.65 1131.02 1185.27C1124.95 1187.97 1131.14 1191.73 1127.25 1195.71C1126.63 1186.77 1129.39 1185.28 1119.5 1185.59C1116.18 1185.7 1106.9 1186.14 1104.09 1185.32L1102.22 1184.75C1101.29 1183.08 1100.44 1183.21 1098.59 1182.65L1097.16 1182.08Z"/><path fill="#F4FBFE" d="M1117.63 1174.96C1122.41 1178.81 1126.3 1181.65 1131.02 1185.27C1124.95 1187.97 1131.14 1191.73 1127.25 1195.71C1126.63 1186.77 1129.39 1185.28 1119.5 1185.59C1116.18 1185.7 1106.9 1186.14 1104.09 1185.32L1102.22 1184.75C1101.29 1183.08 1100.44 1183.21 1098.59 1182.65L1097.16 1182.08C1099.79 1182.11 1117.32 1182.85 1118.32 1181.74C1118.41 1181.28 1118.4 1181.61 1118.23 1180.59L1117.08 1178.77C1113.14 1177.16 1110.19 1177.85 1105.91 1177.12C1110.35 1176.5 1114.4 1177.49 1117.63 1174.96Z"/><path fill="#397FE6" d="M1076.59 1358.28C1087.09 1358.16 1097.59 1358.11 1108.1 1358.12C1108.05 1368.81 1108.07 1379.49 1108.15 1390.17L1076.31 1390.12L1076.59 1358.28Z"/><path fill="#397FE6" d="M791.653 1602.6L823.095 1602.56L823.148 1634.16L791.661 1634.17L791.653 1602.6Z"/><path fill="#397FE6" d="M838.471 1524.17L870.054 1524.06C870.074 1534.45 870.315 1545.52 870.108 1555.84C859.512 1555.68 848.915 1555.57 838.318 1555.53C838.297 1545.08 838.348 1534.62 838.471 1524.17Z"/><path fill="#397FE6" d="M1194.24 1261.17L1226.07 1261.1C1225.96 1271.61 1226.19 1282.4 1225.92 1292.87L1194.2 1292.89C1194.15 1282.32 1194.16 1271.74 1194.24 1261.17Z"/><path fill="#397FE6" d="M1079.48 1292.09L1110.55 1292.1C1110.6 1302.8 1110.58 1313.5 1110.5 1324.19L1079.59 1324.25L1079.48 1292.09Z"/><path fill="#397FE6" d="M698.058 995.894C700.27 994.449 718.742 994.551 723.008 994.866C732.48 995.565 722.893 987.975 729.466 988.931C733.014 993.742 735.972 998.791 739.646 1003.44C741.926 1006.32 741.181 1006.34 738.479 1007.94C737.216 1008.13 726.974 1008.43 727.928 1008.07C726.062 1010.78 728.439 1019.03 726.399 1023.31L698.085 1023.44C698.125 1014.26 698.116 1005.08 698.058 995.894Z"/><path fill="#F4FBFE" d="M698.058 995.894C700.27 994.449 718.742 994.551 723.008 994.866C732.48 995.565 722.893 987.975 729.466 988.931C733.014 993.742 735.972 998.791 739.646 1003.44C741.926 1006.32 741.181 1006.34 738.479 1007.94C737.216 1008.13 726.974 1008.43 727.928 1008.07C726.062 1010.78 728.439 1019.03 726.399 1023.31C725.522 1018.52 725.957 1001.63 725.983 996.17C720.257 996.2 702.681 996.671 698.058 995.894Z"/><path fill="#0065FF" d="M729.466 988.931C733.014 993.742 735.972 998.791 739.646 1003.44C741.926 1006.32 741.181 1006.34 738.479 1007.94C736.788 1007.72 730.019 1007.34 729.631 1006.55C728.738 1004.74 729.273 990.894 729.466 988.931Z"/><path fill="#397FE6" d="M716.151 1429.98L747.493 1429.98C747.429 1440.52 747.519 1451.39 747.261 1461.89L716.175 1461.79L716.151 1429.98Z"/><path fill="#397FE6" d="M1196.06 1196.3L1227.52 1196.32C1227.58 1206.93 1227.56 1217.54 1227.45 1228.15L1195.95 1228.18C1195.98 1218.02 1195.69 1206.35 1196.06 1196.3Z"/><path fill="#397FE6" d="M947.798 1502.71L979.184 1502.68L979.148 1533.97L947.661 1534L947.798 1502.71Z"/><path fill="#397FE6" d="M969.413 1437.43L1000.75 1437.48L1000.78 1468.91C990.476 1469.14 979.639 1468.89 969.328 1468.74C969.325 1458.51 969.187 1447.61 969.413 1437.43Z"/><path fill="#397FE6" d="M1011.05 1382.01L1042.52 1381.97L1042.49 1410.46L1042.31 1411.12C1042.26 1411.28 1041.92 1412.72 1041.68 1412.76C1036.07 1413.59 1016.01 1413.09 1011.08 1413.09L1011.05 1382.01Z"/><path fill="#397FE6" d="M704.025 1363.69C714.392 1363.49 724.929 1363.67 735.313 1363.68L735.314 1395.07L704.026 1395L704.025 1363.69Z"/><path fill="#397FE6" d="M858.491 1455.42L890.024 1455.41L889.985 1486.46L858.554 1486.45L858.491 1455.42Z"/><path fill="#397FE6" d="M1136.29 1322.17C1146.78 1322.04 1157.45 1322.08 1167.94 1322.11L1167.95 1353.41C1157.38 1353.32 1146.81 1353.28 1136.24 1353.3L1136.29 1322.17Z"/><path fill="#397FE6" d="M1145.54 1212.78L1176.99 1212.81C1177.05 1223.07 1177.2 1233.68 1177.01 1243.91L1145.66 1243.93C1145.33 1233.53 1145.47 1223.18 1145.54 1212.78Z"/><path fill="#397FE6" d="M759.119 1497.84C769.405 1497.63 780.093 1497.81 790.432 1497.77L790.469 1528.7C780.594 1529.03 769.148 1528.71 759.127 1528.74L759.119 1497.84Z"/><path fill="#397FE6" d="M698.175 1296.35L729.741 1296.33C729.808 1306.57 729.82 1316.81 729.778 1327.04L698.006 1327C698.004 1317.17 697.77 1306.09 698.175 1296.35Z"/><path fill="#397FE6" d="M567.04 1622.66C577.259 1622.44 587.832 1622.57 598.084 1622.56C598.086 1631.28 598.544 1645.13 597.962 1653.42L567.067 1653.52L567.04 1622.66Z"/><path fill="#397FE6" d="M902.96 1413.21L934.021 1413.16L934.026 1444.08L902.885 1444.03C902.889 1434.06 902.62 1423.08 902.96 1413.21Z"/><path fill="#397FE6" d="M884.149 1350.06L915.38 1350C915.381 1359.7 915.615 1371.17 915.148 1380.78L884.061 1380.79L884.149 1350.06Z"/><path fill="#397FE6" d="M612.1 1541.19L643.153 1541.15L643.229 1572.18C632.875 1572.02 622.519 1571.96 612.164 1571.99C611.961 1562.14 611.874 1551.01 612.1 1541.19Z"/><path fill="#397FE6" d="M586.824 1330.25L618.075 1330.2C618.051 1340.33 618.14 1350.81 617.947 1360.9L586.907 1360.82C586.859 1350.79 586.6 1340.23 586.824 1330.25Z"/><path fill="#397FE6" d="M539.071 1052.26L570.129 1052.23C570.177 1062.29 570.321 1072.93 570.093 1082.96L539.069 1082.88C539.031 1072.83 538.794 1062.25 539.071 1052.26Z"/><path fill="#397FE6" d="M600.124 1052.27L631.128 1052.26C631.049 1062.48 631.217 1072.87 631.032 1083.06L600.066 1083.04C600.017 1073.06 599.855 1062.19 600.124 1052.27Z"/><path fill="#397FE6" d="M527.24 1514.37L557.953 1514.31L557.868 1545.06L527.171 1545.04C527.151 1535.09 526.952 1524.23 527.24 1514.37Z"/><path fill="#397FE6" d="M581.653 1260.08C591.907 1260.23 602.162 1260.27 612.416 1260.21L612.581 1290.7C602.804 1291.13 591.42 1290.79 581.503 1290.82L581.653 1260.08Z"/><path fill="#397FE6" d="M589.392 1467.9L619.908 1467.9C619.929 1477.52 620.226 1489.07 619.886 1498.57L589.366 1498.53L589.392 1467.9Z"/><path fill="#397FE6" d="M955.207 1313.75L986.147 1313.74C986.217 1323.8 986.215 1333.86 986.14 1343.92L955.154 1343.9L955.207 1313.75Z"/><path fill="#397FE6" d="M673.127 956.142L704.181 956.07C703.862 966.164 704.283 976.827 703.836 986.565L673.203 986.643C673.106 976.476 673.08 966.309 673.127 956.142Z"/><path fill="#397FE6" d="M1062.98 1425.88C1073.26 1425.82 1083.54 1425.82 1093.82 1425.89L1093.82 1456.2C1083.65 1456.39 1073.13 1456.17 1062.92 1456.18L1062.98 1425.88Z"/><path fill="#397FE6" d="M535.391 1202.99L565.877 1202.91C565.884 1212.4 566.114 1224.2 565.701 1233.54C555.566 1233.44 545.429 1233.42 535.293 1233.49L535.391 1202.99Z"/><path fill="#397FE6" d="M669.595 1477.85L700.038 1477.79L700.022 1508.04L669.558 1508L669.595 1477.85Z"/><path fill="#397FE6" d="M820.269 1335.92L850.824 1335.92L850.935 1365.97L820.463 1365.89L820.269 1335.92Z"/><path fill="#397FE6" d="M706.028 1556.92L736.385 1557.04L736.37 1587.37L706.005 1587.39C705.973 1577.29 705.904 1567.01 706.028 1556.92Z"/><path fill="#397FE6" d="M592.312 1194.36L622.832 1194.32C622.804 1204.29 623.043 1214.8 622.812 1224.7L592.328 1224.55C592.236 1214.76 592.022 1204.12 592.312 1194.36Z"/><path fill="#397FE6" d="M748.27 1251.33L778.943 1251.29C778.915 1258.73 779.381 1274.88 778.633 1281.54L748.174 1281.38C748.13 1271.6 748.031 1261.09 748.27 1251.33Z"/><path fill="#397FE6" d="M1267.93 1204.76L1298.37 1204.66L1298.37 1234.88C1288.23 1234.8 1278.09 1234.79 1267.95 1234.82L1267.93 1204.76Z"/><path fill="#397FE6" d="M945.979 1364.7L975.989 1364.72L975.975 1394.75L945.785 1394.84L945.979 1364.7Z"/><path fill="#397FE6" d="M1051.83 1258.3L1082.39 1258.28L1082.38 1288.31C1072.16 1288.24 1061.95 1288.23 1051.73 1288.28C1051.75 1278.62 1051.51 1267.86 1051.83 1258.3Z"/><path fill="#397FE6" d="M611.659 969.892L641.665 969.88L641.499 999.75C635.563 1000.5 618.566 1000.02 611.613 1000.06L611.659 969.892Z"/><path fill="#397FE6" d="M443.517 1459.86L473.753 1459.81L473.745 1489.83C463.706 1489.89 453.666 1489.89 443.627 1489.82L443.517 1459.86Z"/><path fill="#397FE6" d="M668.233 1649.85L699.127 1649.82C699.227 1659.9 699.258 1669.99 699.222 1680.08L668.945 1680.05C668.97 1671.74 669.194 1660.02 668.414 1651.87L668.233 1649.85Z"/><path fill="#397FE6" d="M931.326 1194.07C941.578 1194.15 951.831 1194.17 962.083 1194.12C962.086 1202.17 962.503 1216.13 961.844 1223.53L931.258 1223.56C931.174 1213.73 931.197 1203.9 931.326 1194.07Z"/><path fill="#397FE6" d="M370.909 1383.05L400.812 1383.01L400.801 1413.17C391.05 1413.42 380.699 1413.11 370.85 1413.19L370.909 1383.05Z"/><path fill="#397FE6" d="M411.854 1549.98L441.957 1549.91L441.865 1579.77L411.886 1579.81L411.854 1549.98Z"/><path fill="#397FE6" d="M752.998 1313.85L783.05 1313.82L783.104 1343.97L753.206 1343.99C753.068 1333.95 752.999 1323.9 752.998 1313.85Z"/><path fill="#397FE6" d="M269.331 1753.93L298.936 1753.92L299.019 1784.1L269.22 1784L269.331 1753.93Z"/><path fill="#397FE6" d="M536.028 1728.28L565.843 1728.27C565.854 1738.15 566.074 1748.89 565.844 1758.7L535.908 1758.67C535.911 1748.97 535.621 1737.85 536.028 1728.28Z"/><path fill="#397FE6" d="M654.071 1403.23C664.123 1403.2 674.174 1403.25 684.225 1403.36L684.239 1433.16L653.991 1433.11C654.023 1423.35 653.79 1412.92 654.071 1403.23Z"/><path fill="#397FE6" d="M498.55 1588.48L522.22 1588.41C522.241 1594.67 522.586 1601.68 522.279 1607.86C521.945 1614.61 524.714 1618.8 518.061 1618.68L516.25 1618.66L492.306 1618.65C492.312 1613.77 491.924 1595.08 492.614 1589.41C492.741 1588.36 497.248 1588.5 498.55 1588.48Z"/><path fill="#397FE6" d="M453.017 1672.84L482.824 1672.79L482.898 1702.72C472.957 1702.85 462.879 1702.74 452.919 1702.77L453.017 1672.84Z"/><path fill="#397FE6" d="M378.491 1803.11L408.302 1803.14L408.344 1833.44C398.405 1833.33 388.466 1833.3 378.527 1833.34L378.491 1803.11Z"/><path fill="#397FE6" d="M464.132 1344.25L493.63 1344.22L493.794 1374.35L464.02 1374.29C464.057 1364.44 463.857 1354.04 464.132 1344.25Z"/><path fill="#397FE6" d="M533.209 1368.87L563.097 1368.7C563.143 1377.91 563.512 1389.63 563.088 1398.63L533.12 1398.58L533.209 1368.87Z"/><path fill="#397FE6" d="M765.955 1373.6L795.975 1373.56L796.009 1403.2C786.081 1403.34 775.919 1403.23 765.971 1403.24L765.955 1373.6Z"/><path fill="#397FE6" d="M422.721 1250.89L452.065 1250.84L452.065 1280.97L422.685 1280.96L422.721 1250.89Z"/><path fill="#397FE6" d="M589.048 1403.96L618.506 1403.98C618.582 1414.03 618.577 1424.08 618.49 1434.13L588.973 1434.15L589.048 1403.96Z"/><path fill="#397FE6" d="M829.944 1396.94L859.825 1396.9L859.863 1426.58C849.891 1426.64 839.918 1426.64 829.946 1426.59L829.944 1396.94Z"/><path fill="#397FE6" d="M243.306 1626.27C253.225 1626.19 263.144 1626.17 273.063 1626.21L273.103 1656.26L243.368 1656.24L243.306 1626.27Z"/><path fill="#397FE6" d="M552.029 1284.51C556.089 1284.92 554.32 1309.54 554.336 1314.1L525.138 1314.08C524.522 1312.25 524.444 1310.97 524.492 1309.01L524.496 1284.61L552.029 1284.51Z"/><path fill="#397FE6" d="M372.909 1676.26L402.248 1676.17L402.349 1706.16L372.634 1706.16C372.644 1696.48 372.602 1685.89 372.909 1676.26Z"/><path fill="#397FE6" d="M319.973 1519.08L349.508 1519.06L349.572 1548.97L319.991 1548.91C319.909 1539.1 319.802 1528.87 319.973 1519.08Z"/><path fill="#397FE6" d="M960.163 1227.29L989.955 1227.2C989.967 1237.09 990.033 1247.09 989.908 1256.97L960.083 1256.92C960.085 1247.28 959.885 1236.84 960.163 1227.29Z"/><path fill="#397FE6" d="M647.533 1335.1L676.88 1335.15C676.98 1345.05 676.868 1355.02 677.113 1364.89L647.601 1364.88L647.533 1335.1Z"/><path fill="#397FE6" d="M639.162 1267.3L668.72 1267.32L668.465 1296.99L639.106 1296.96C639.098 1287.28 638.936 1276.91 639.162 1267.3Z"/><path fill="#397FE6" d="M667.614 907.979L696.706 907.976L696.716 937.677C687.065 937.797 677.283 937.713 667.617 937.723C667.495 927.809 667.494 917.894 667.614 907.979Z"/><path fill="#397FE6" d="M558.151 1132.99L587.874 1132.99L587.829 1162.39L558.131 1162.33C558.132 1152.57 558.044 1142.74 558.151 1132.99Z"/><path fill="#397FE6" d="M602.041 1132L631.574 1131.87C631.387 1141.89 631.486 1151.69 631.431 1161.7L601.959 1161.76C601.919 1151.84 601.946 1141.92 602.041 1132Z"/><path fill="#397FE6" d="M783.99 1439.2L813.449 1439.19C813.714 1448.97 813.749 1458.75 813.554 1468.53L783.897 1468.65C783.902 1459.07 783.699 1448.67 783.99 1439.2Z"/><path fill="#397FE6" d="M485.324 1164.02L514.432 1163.95C514.432 1173.36 514.67 1184.44 514.196 1193.68L485.243 1193.74L485.324 1164.02Z"/><path fill="#397FE6" d="M514.64 1438.98L543.895 1438.79C543.906 1444.71 544.302 1463.97 543.324 1468.51C533.806 1468.47 524.287 1468.49 514.769 1468.56C514.662 1458.7 514.619 1448.84 514.64 1438.98Z"/><path fill="#397FE6" d="M858.454 1294.01L888.011 1294L887.979 1323.18L858.588 1323.12C858.415 1313.42 858.37 1303.71 858.454 1294.01Z"/><path fill="#397FE6" d="M655.247 1012.75C664.844 1012.49 674.977 1012.63 684.624 1012.65C684.517 1022.37 684.486 1032.09 684.532 1041.81C675.452 1042.19 664.553 1041.87 655.28 1041.9L655.247 1012.75Z"/><path fill="#397FE6" d="M794.64 1227.24L824.756 1227.2L824.733 1255.45L794.781 1255.27L794.64 1227.24Z"/><path fill="#397FE6" d="M690.083 1242.02L719.116 1241.96C719.114 1251.58 719.283 1261.5 719.111 1271.07L690.019 1271.02C689.919 1261.35 689.94 1251.68 690.083 1242.02Z"/><path fill="#397FE6" d="M1016.11 1325.38L1044.73 1325.4L1044.86 1354.44L1016.02 1354.39C1016.03 1345.16 1015.71 1334.46 1016.11 1325.38Z"/><path fill="#397FE6" d="M798.896 1280.05L827.846 1280L827.839 1308.32L798.923 1308.41L798.896 1280.05Z"/><path fill="#397FE6" d="M1023.18 1224.21L1051.89 1224.13L1051.89 1252.41L1023.28 1252.45C1023.14 1243.04 1023.1 1233.62 1023.18 1224.21Z"/><path fill="#397FE6" d="M896.201 1313.3L924.622 1313.06C924.759 1322.15 924.859 1332.55 924.637 1341.63C915.165 1341.57 905.692 1341.57 896.22 1341.63C896.21 1332.34 895.957 1322.52 896.201 1313.3Z"/><path fill="#397FE6" d="M835.068 1193.3L863.541 1193.26C863.402 1202.81 863.359 1212.36 863.41 1221.91L835.079 1221.8C835.064 1212.56 834.761 1202.43 835.068 1193.3Z"/><path fill="#397FE6" d="M642.194 1215.47L670.698 1215.4C670.646 1224.69 670.87 1234.34 670.636 1243.56C661.129 1243.46 651.622 1243.42 642.114 1243.46C642.11 1234.61 641.806 1224.17 642.194 1215.47Z"/><path fill="#397FE6" d="M687.273 1195.63C696.492 1195.43 705.989 1195.64 715.247 1195.59L715.183 1222.99L687.354 1223.04L687.273 1195.63Z"/><path fill="#397FE6" d="M695.553 1045.25L722.804 1045.2C722.756 1054.3 722.764 1063.4 722.828 1072.5C713.766 1072.41 704.702 1072.39 695.639 1072.44L695.553 1045.25Z"/><path fill="#397FE6" d="M652.138 1163.82C660.808 1163.74 669.478 1163.71 678.148 1163.73L678.094 1192.2L652.097 1192.19C652.181 1182.73 652.195 1173.28 652.138 1163.82Z"/><path fill="#397FE6" d="M690.256 1091.79L717.425 1091.71C717.548 1100.46 717.594 1109.21 717.563 1117.96L690.398 1118C690.305 1109.26 690.258 1100.52 690.256 1091.79Z"/><path fill="#397FE6" d="M651.175 1066.19L677.805 1066.16L677.841 1092.11L651.288 1092.07L651.175 1066.19Z"/><path fill="#397FE6" d="M876.84 1194.12L903.066 1194.06L903.094 1220.05C894.414 1220.18 885.55 1220.08 876.851 1220.09L876.84 1194.12Z"/><path fill="#397FE6" d="M854.311 1230.28L881.193 1230.26C881.202 1238.1 881.469 1247.91 881.041 1255.62L854.323 1255.78C854.26 1247.28 854.256 1238.78 854.311 1230.28Z"/><path fill="#397FE6" d="M928.062 1279.42L954.955 1279.24C954.938 1287.21 955.223 1296.84 954.808 1304.67L927.949 1304.73C927.967 1296.79 927.689 1287.21 928.062 1279.42Z"/><path fill="#397FE6" d="M647.764 1111.96L673.471 1111.95L673.461 1137.02L647.83 1137.02L647.764 1111.96Z"/><path fill="#397FE6" d="M693.228 1128.32L719.066 1128.21C719.053 1136.26 719.329 1145.67 718.963 1153.6L693.221 1153.64C693.18 1145.31 693.06 1136.63 693.228 1128.32Z"/><path fill="#397FE6" d="M832.034 1261.47L857.917 1261.46L857.927 1286.29L831.825 1286.32C831.792 1279.68 831.339 1267.64 832.034 1261.47Z"/><path fill="#397FE6" d="M728.822 1214.92L754.18 1214.91L754.256 1240.02L728.807 1240.02L728.822 1214.92Z"/><path fill="#397FE6" d="M1018.13 1291.3L1043.41 1291.22C1043.43 1295.63 1044.11 1313.47 1042.99 1316.52C1034.67 1316.46 1026.35 1316.45 1018.03 1316.51C1018.06 1308.33 1017.86 1299.41 1018.13 1291.3Z"/><path fill="#397FE6" d="M687.376 1159.01C695.877 1158.94 704.378 1158.91 712.88 1158.93C712.892 1166.89 712.946 1175.03 712.841 1182.98L687.451 1182.98C687.338 1174.99 687.313 1167 687.376 1159.01Z"/><path fill="#0065FF" d="M728.49 1040.38C732.077 1051.29 734.336 1058.5 739.355 1068.95C737.24 1071.5 730.867 1079.14 728.131 1079.74C729.044 1068.95 728.488 1051.72 728.49 1040.38Z"/></svg>