<?xml version="1.0" encoding="utf-8" ?><svg xmlns="http://www.w3.org/2000/svg" viewBox="660 638 1650 375"><path fill="#0065FF" d="M1791.42 670.239C1801.59 668.974 1810.45 670.397 1819.03 676.263C1826.5 681.321 1831.55 689.229 1833.01 698.129C1834.7 707.973 1833.98 729.788 1833.93 740.945L1833.78 811.536L1833.85 891.224C1833.91 906.276 1833.99 920.797 1833.61 936.126C1832.95 962.669 1799.28 975.57 1779.39 960.025C1771.4 953.78 1770.18 944.626 1769.17 935.096C1747.47 973.434 1700.56 973.959 1664.43 957.328C1648.07 948.362 1635.02 937.543 1625.2 921.555C1594.95 872.31 1607.94 800.256 1658.09 769.781C1677.88 757.567 1701.76 753.867 1724.32 759.518C1743 764.238 1754.58 773.102 1764.4 789.304C1764.29 772.128 1761.8 700.435 1767.09 689.062C1771.84 678.832 1781.33 673.792 1791.42 670.239Z"/><path fill="#181926" d="M1713.1 817.293C1738.38 812.347 1762.91 828.771 1767.96 854.032C1773.01 879.293 1756.69 903.886 1731.45 909.043C1706.06 914.232 1681.29 897.793 1676.21 872.381C1671.13 846.97 1687.67 822.269 1713.1 817.293Z"/><path fill="white" d="M1326.07 705.676C1327.86 670.539 1370.59 658.327 1391.87 684.921C1401.84 697.376 1399.04 727.295 1399.02 743.337L1398.94 822.063C1417.14 803.231 1438.7 779.432 1458.45 762.257C1474.43 748.356 1513.26 764.962 1509.85 788.359C1509.22 799.862 1503.33 808.449 1495.62 816.649C1482.46 830.164 1469.57 844.758 1455.55 857.335L1492.04 890.814C1499.67 897.756 1514.49 909.793 1519.65 917.874C1534.4 940.96 1510.62 966.488 1487.43 966.499C1482.52 966.473 1477.71 965.164 1473.46 962.702C1464.84 957.74 1449.03 942.727 1441.08 935.499L1399.09 897.114C1399.41 926.496 1405.76 964.104 1362.26 966.674C1353.58 967.186 1344.53 963.138 1338.41 956.973C1333.11 951.649 1329.35 944.988 1327.53 937.699C1325.04 927.804 1326.29 913.49 1326.09 903.065C1325.69 881.27 1327.3 856.759 1326.03 835.154C1322.63 829.241 1324.57 752.42 1324.38 738.875L1323.65 754.608C1322.78 744.1 1322.51 714.831 1326.07 705.676Z"/><path fill="#181926" d="M1326.03 835.154C1322.63 829.241 1324.57 752.42 1324.38 738.875L1323.65 754.608C1322.78 744.1 1322.51 714.831 1326.07 705.676L1326.2 790.523C1326.22 802.953 1326.85 823.348 1326.03 835.154Z"/><path fill="#0065FF" d="M1955.88 757.406C1983.93 753.189 2018.58 765.486 2038.87 784.857C2058.97 803.629 2080.41 851.705 2058.7 875.503C2047.84 887.411 2015.49 883.612 1999.89 883.474L1922.06 883.315C1934.89 912.536 1967.89 921.927 1995.85 911.035C2013.99 903.966 2026.27 881.08 2047.42 907.196C2066.77 943.892 2015.33 964.638 1987.71 967.332C1953.83 970.637 1920.44 964.721 1893.42 943.153C1872.45 926.713 1859 902.514 1856.1 876.027C1849.33 812.293 1893.02 763.315 1955.88 757.406Z"/><path fill="#181926" d="M1963.05 808.337C1975.08 808.105 1986.11 811.167 1995.41 819.105C2000 823.024 2008.86 835.523 2005.48 841.445C1999.56 842.893 1974.05 842.073 1966.75 842.006L1922.39 842.085C1928.26 819.766 1941.17 811.576 1963.05 808.337Z"/><path fill="white" d="M1203.84 758.4C1230.94 756.211 1260.5 761.134 1282.62 777.812C1291.84 785.226 1300.25 795.084 1301.66 807.034C1304.42 830.467 1275.41 841.571 1257.63 832.819C1243.2 825.72 1233.07 814.38 1215.22 815.547C1203.2 816.333 1191.01 821.494 1182.69 830.495C1173.38 840.261 1171.71 854.139 1172.15 867.037C1172.7 882.85 1181.75 896.91 1195.2 905.01C1207.81 912.596 1226.3 911.63 1239.05 904.753C1249.81 898.952 1258.68 889.555 1271.78 889.086C1282.18 888.713 1288.72 891.702 1296.06 898.723C1304.27 910.582 1303.89 923.471 1294.57 934.296C1258.27 976.472 1184.81 976.635 1143.62 944.506C1122.2 927.95 1108.44 903.397 1105.49 876.489C1097.95 811.868 1140.72 765.235 1203.84 758.4Z"/><path fill="white" d="M786.593 758.361C813.257 754.431 849.749 763.416 869.959 782.01C881.659 792.774 890.413 812.465 877.622 826.411C869.965 836.431 847.482 838.753 837.096 830.673C815.189 813.629 788.44 808.951 766.501 829.464C757.505 838.421 754.852 852.262 754.956 864.442C755.155 887.601 770.135 905.895 792.831 909.809C821.652 914.779 830.723 890.507 856.336 889.029C866.191 888.461 873.487 893.408 879.958 900.098C889.652 917.551 881.092 933.07 867.119 944.27C828.238 975.436 766.771 975.174 727.436 945.009C705.829 928.737 691.786 904.362 688.546 877.507C680.174 812.429 723.295 765.696 786.593 758.361Z"/><path fill="#0065FF" d="M2175.27 888.786C2187.03 861.883 2195.31 831.191 2206.53 804.048C2216.13 781.643 2215.1 761.767 2243.83 757.656C2266.97 754.345 2288.49 768.108 2281.8 793.4C2278.62 805.459 2269.84 822.389 2264.49 834.126C2257.43 849.366 2250 864.847 2243.87 880.452L2200.65 880.175C2200.8 888.798 2201.34 898.904 2200.04 907.303C2198.7 908.372 2197.74 909.296 2196.5 910.475C2194.38 914.96 2195.16 921.149 2195.34 926.267L2160.02 926.344L2160.25 955.502L2140.08 955.652L2140.22 935.173L2128.19 935.29C2116.26 906.948 2104.06 878.72 2091.59 850.608C2085.42 836.564 2068.68 801.751 2066.93 788.134C2065.96 781.007 2068.02 773.799 2072.61 768.263C2079.06 760.543 2087.28 758.405 2096.63 757.347C2108.19 756.668 2125.64 760.733 2130.9 772.036C2141.27 794.285 2149.2 818.505 2157.75 841.599C2163.43 856.951 2170.38 873.393 2175.27 888.786Z"/><path fill="white" d="M939.83 670.255C954.11 669.874 966.904 675.429 974.799 687.552C982.179 698.886 980.098 719.159 980.107 732.526L980.148 794.722L980.165 885.375C980.162 902.033 980.655 919.231 979.532 935.837C978.289 954.236 963.308 963.936 946.537 966.959C904.717 965.723 906.645 930.832 907.449 899.603C908.018 877.486 907.611 854.344 907.569 832.163L907.44 748.862C907.45 733.186 907.143 717.428 908.062 701.786C909.143 683.398 923.631 674.05 939.83 670.255Z"/><path fill="white" d="M1040.39 759.172C1065.01 756.563 1085.71 768.946 1085.91 795.8C1086.24 841.587 1086.52 887.467 1085.91 933.245C1085.67 951.411 1073.15 960.524 1057.51 965.811C1049.89 967.625 1042.25 967.09 1035.01 963.985C1026.13 960.172 1018.17 951.971 1014.9 942.811C1012.24 935.375 1012.72 806.07 1013.67 791.671C1014 786.652 1014.49 781.929 1016.77 777.358C1021.78 767.3 1030.14 762.505 1040.39 759.172Z"/><path fill="white" d="M1040.42 670.609C1060.36 665.449 1080.7 677.492 1085.77 697.462C1090.84 717.433 1078.7 737.716 1058.7 742.689C1038.84 747.63 1018.72 735.589 1013.69 715.75C1008.65 695.911 1020.6 675.735 1040.42 670.609Z"/><path fill="#0065FF" d="M2180.08 945.714C2195.25 945.563 2210.97 945.803 2226.27 945.727C2226.29 960.405 2226.77 974.911 2226.95 989.562C2212.42 990.254 2194.78 989.744 2179.96 989.746L2180.08 945.714Z"/><path fill="#0065FF" d="M2250.23 895.186C2262.17 895.033 2274.12 894.985 2286.06 895.043C2286.03 906.492 2286.45 919.411 2286.03 930.656C2274.02 930.603 2262.13 930.823 2250.11 930.61C2250.24 918.871 2249.97 906.854 2250.23 895.186Z"/></svg>